<svg width="1e3" height="1e3" viewBox="0 0 1e3 1e3" xmlns="http://www.w3.org/2000/svg">
 <rect width="1e3" height="1e3" rx="205" ry="205" fill="#FB4C07"/>
 <g transform="translate(-18 -13) scale(.9)" fill="#fff">
  <g transform="translate(0 1175) scale(.1 -.1)">
   <path d="m5391 9689c-145-25-198-84-232-258-23-121-23-121-65-121-41 0-41 0-48-56-7-64-35-184-46-199-4-5-13-27-19-47-10-29-18-38-36-38-22 0-78-126-135-305-11-33-14-36-20-20-9 24-11 20-66-110-37-88-38-94-42-237-4-148-4-148 74-148 44 0 572-9 1174-20s1108-20 1124-20c29 0 29 0 23-77-5-81-119-392-153-419-8-6-23-42-35-80-22-73-356-912-457-1149-174-408-367-779-452-870-90-97-250-320-319-447-45-82-59-98-70-80-4 7-55-37-126-108-65-66-117-121-115-123 3-2 16-8 29-13 24-10 23-12-40-62-88-72-235-132-324-132-3 0-5-19-5-43 0-43 0-43-85-85-60-30-98-42-128-42-32 0-78-17-199-77-149-72-175-92-125-93 18-1 15-5-15-21-84-44-318-109-318-88 0 5-5 9-11 9-5 0-7-5-4-10 13-22-221-115-413-165-170-45-510-83-759-86-90-1-137-18-106-37 19-12-147-413-175-423-12-5-22-14-22-21 0-24-135-327-222-498-120-237-147-373-89-448 18-25 154-10 509 58 116 22 187 25 229 9 27-10 28-11 8-25-19-15-18-15 10-9 198 44 454 126 690 222 221 89 617 285 588 290-13 3-23 8-23 12 0 24 280 198 291 180 4-7 62 17 160 67 85 42 148 79 141 82-23 7-11 20 61 62 187 111 521 351 824 592 68 54 128 98 134 98 55 0 227 141 294 241 16 24 90 103 165 176 74 72 142 139 151 148 9 8 37 31 63 49 36 25 74 73 153 192 58 88 131 184 162 214 90 87 291 378 415 603 38 67 38 67 81 67s43 0 65 71c32 105 97 249 214 469 163 307 309 603 371 755 32 77 113 264 180 415s168 385 225 520c56 135 106 250 110 255 13 17 117 267 131 313 13 43 13 43 24 16 10-24 16-9 68 167 32 107 58 199 57 205 0 7 18 65 40 130 21 66 49 171 60 234s25 134 30 157c23 103-54 176-235 224-60 15-3302 23-3394 8z"/>
   <path d="m9358 9333c4-380 13-349-313-1103-231-536-309-700-331-700-28 0-108-187-118-275-11-104-33-152-97-216-47-47-66-77-95-147-56-132-86-226-75-230 10-3-83-201-99-212-4-3-31-52-60-109-167-333-501-881-520-851-24 39-66-10-119-140-40-95-40-95-81-100-40-5-42-7-59-56-22-66-72-148-141-233-89-109-324-352-336-347-6 2-73-58-149-134-110-110-135-141-122-146 14-5-4-26-85-105-97-92-106-98-145-99-43 0-43 0-43-40s0-40-42-40c-40 0-46-5-217-173-170-168-178-174-234-187-61-14-115-54-276-205-92-86-139-117-162-104-25 13-125-56-134-93-7-30-113-91-180-103-52-10-58-14-45-30 9-11-5-22-71-55-58-30-84-38-89-30s-57-17-165-81c-157-93-157-93-104-111 74-25 113-15 501 137 9 4 18 19 20 33 3 25 8 28 86 41 54 9 82 19 82 27 0 7 9 18 19 24 26 13 61 13 61-1 0-26 310 110 369 162 111 98 539 299 636 299 19 0 35-5 35-10 0-21 572 276 882 458 148 87 148 87 148 129 0 38 3 43 28 49 181 40 501 242 713 451 127 125 127 125 155 110 29-15 30-14 189 104 88 66 205 165 261 220 70 70 105 98 116 94 17-7 84 48 288 235 58 53 161 145 230 205 146 127 240 216 240 228 0 4-5 5-11 1-25-15 1 20 96 131 55 64 108 127 117 138 13 16 20 19 26 10 10-16 120 105 152 167 35 70 73 120 142 190 35 36 76 81 91 100 21 27 29 32 36 21 13-20 66 63 96 152 44 133 32 262-54 563-74 256-236 801-281 944-27 85-103 332-170 547-153 499-169 539-236 608-88 89-171 137-309 178-50 14-50 14-47-290z"/>
   <path d="m4175 9463c-11-3-50-18-87-35-68-31-68-31-68-74 0-44 0-44-46-44-45 0-45 0-42-177 3-172 4-180 31-233 52-102 38-95 210-95 152 1 152 1 207 37 89 59 113 80 100 88-9 6-5 20 13 51 59 103 78 289 37 369-12 23-16 40-10 40s8 5 4 11c-4 8-9 8-13 1s-59 2-161 28c-85 22-155 39-155 39 0-1-9-3-20-6z"/>
   <path d="m3345 8929c-16-5-66-13-110-19-120-16-125-18-125-40 0-11-3-20-7-20-33-1-35-17-17-149 18-131 18-131 181-133 90-1 173-2 185-2 25-1 37 50 53 212 8 74 8 74-36 118-45 46-64 51-124 33z"/>
   <path d="m2552 8292c-94-23-108-47-86-144 9-40 18-74 19-76 3-3 237 37 242 41 1 2-2 20-7 42-4 22-13 66-20 98-13 66-27 70-148 39z"/>
   <path d="m2100 7728c-6-24-15-57-20-75-11-43-10-43 97-43 93 0 93 0 93 80s0 80-80 80c-79 0-79 0-90-42z"/>
   <path d="m1841 7293c-38-47-145-412-126-431 10-11 10-26-2-80-46-221-93-581-93-717 0-56 2-65 18-65 15 0 22-20 41-122 13-68 48-220 78-338s56-227 57-242c4-44 124-233 211-332 44-50 101-118 127-152 47-61 99-100 286-209 89-53 96-62 55-67-32-4-13-18 110-88 58-32 58-32 51-6-5 20-3 25 7 22 297-102 407-124 654-132 506-18 906 67 1325 282 96 49 135 64 168 64 80 0 133 35 417 274 213 180 227 197 233 277 4 60 4 60-217-82-121-77-219-145-215-150 11-18-256-139-331-150-39-6-132-29-207-51-456-133-1e3 -142-1406-22-47 14-100 28-116 30-68 8-204 91-518 313-118 84-153 118-255 243-144 178-215 311-200 376 6 28-22 76-37 63-10-9-20 6-46 66-78 188-130 367-102 349 9-5 12 64 12 271 0 286 3 312 54 643 14 91 26 171 26 178 0 22-38 13-59-15z"/>
  </g>
 </g>
</svg>
