<?xml version="1.0" encoding="UTF-8"?>
<svg version="1.1" xmlns="http://www.w3.org/2000/svg" width="290" height="284">
<path d="M0 0 C1.83626722 -0.00379079 3.67253156 -0.00929706 5.50878906 -0.01637268 C10.45913667 -0.03024344 15.40913346 -0.01921767 20.35946131 -0.00266147 C25.5592944 0.01126981 30.75910879 0.00471996 35.95895386 0.00120544 C44.68590903 -0.00148984 53.41272613 0.01192178 62.13964844 0.03515625 C72.20822987 0.06177831 82.27658082 0.06350519 92.3451854 0.05176789 C102.06123732 0.04096516 111.77720643 0.04719567 121.4932518 0.06132317 C125.6149887 0.06705965 129.73666452 0.0670188 133.85840225 0.06225777 C138.7160595 0.05746299 143.57346636 0.06769267 148.43107605 0.08921242 C150.2067213 0.0947459 151.98239078 0.09527746 153.75803757 0.09025955 C166.83843784 0.05794765 177.58404907 1.73429374 189.44091797 7.50170898 C189.44091797 8.16170898 189.44091797 8.82170898 189.44091797 9.50170898 C190.18470703 9.75823242 190.92849609 10.01475586 191.69482422 10.27905273 C200.91559653 14.3844606 207.25637838 24.98945393 210.75341797 34.06420898 C213.24653881 40.97551867 213.56489937 47.99361845 213.58135986 55.27896118 C213.58581655 56.38920719 213.58581655 56.38920719 213.59036326 57.52188241 C213.59897162 59.97952518 213.60055179 62.43711879 213.60205078 64.89477539 C213.60668456 66.66632184 213.61170996 68.4378673 213.61709595 70.20941162 C213.63016857 75.00724519 213.63665491 79.8050648 213.64110661 84.60291338 C213.64404582 87.60618175 213.64815221 90.60944638 213.65261078 93.61271286 C213.66627255 103.02600543 213.6759455 112.43928936 213.67981267 121.85259116 C213.68428946 132.68766298 213.70182538 143.52260841 213.73081326 154.35764182 C213.75248969 162.75370876 213.76252013 171.14974029 213.76385379 179.5458349 C213.7648976 184.55072361 213.77071469 189.55549329 213.7886734 194.56035233 C213.80525738 199.27345956 213.80725993 203.9863596 213.79853439 208.69948578 C213.7977695 210.41905399 213.80203351 212.13863383 213.81199265 213.85817337 C213.91374754 232.5384156 211.27473463 248.10165949 197.92529297 262.21264648 C187.37033873 271.93780873 174.98005403 276.66705938 160.75663757 276.63542175 C160.00240393 276.63768731 159.24817029 276.63995287 158.47108108 276.64228708 C155.95409364 276.64859646 153.43716047 276.64779968 150.92016602 276.64697266 C149.11124604 276.64996606 147.3023267 276.65336901 145.4934082 276.65715027 C140.58628749 276.66597613 135.67918422 276.66832779 130.77205634 276.66896605 C127.70417904 276.66967738 124.63630615 276.67181326 121.56842995 276.67446327 C110.85966333 276.68371211 100.15090915 276.68779875 89.44213867 276.68701172 C79.46970831 276.68641109 69.49733207 276.69696115 59.5249154 276.71275538 C50.95487072 276.72584349 42.38484371 276.73119508 33.81478912 276.73055631 C28.69995426 276.73030169 23.58516751 276.73313299 18.47034264 276.74373436 C13.6579962 276.75343667 8.84574366 276.75347989 4.03339386 276.74621773 C2.27141749 276.74517453 0.50943521 276.747519 -1.25253105 276.75357819 C-19.10883975 276.81098608 -32.53334294 274.24538539 -46.24658203 262.12670898 C-60.53572355 245.90660239 -62.71166549 231.50397003 -62.7043457 210.43823242 C-62.70734166 208.71417671 -62.71074519 206.99012168 -62.71452332 205.2660675 C-62.72332332 200.60264956 -62.72569975 195.93924999 -62.7263391 191.27582455 C-62.72705191 188.3564809 -62.72919059 185.43714187 -62.73183632 182.51779938 C-62.74107669 172.31663214 -62.74517287 162.11547793 -62.74438477 151.91430664 C-62.74378441 142.43210821 -62.75433134 132.94996675 -62.77012843 123.46778274 C-62.78323976 115.30440561 -62.78856715 107.14104703 -62.78792936 98.97765946 C-62.78767541 94.11201614 -62.79046897 89.24642347 -62.80110741 84.38079071 C-62.810849 79.80067017 -62.81082637 75.2206481 -62.80359077 70.64052391 C-62.80255241 68.96891573 -62.80486282 67.29730122 -62.81095123 65.62570381 C-62.85500196 52.68310012 -62.68939068 40.19861973 -56.55908203 28.50170898 C-55.98158203 27.32608398 -55.40408203 26.15045898 -54.80908203 24.93920898 C-54.39658203 24.13483398 -53.98408203 23.33045898 -53.55908203 22.50170898 C-52.89908203 22.50170898 -52.23908203 22.50170898 -51.55908203 22.50170898 C-51.31287109 21.75920898 -51.06666016 21.01670898 -50.81298828 20.25170898 C-46.99418617 11.87651682 -37.0909396 6.74576322 -28.90393257 3.42462063 C-19.1729198 0.05611413 -10.15930458 -0.06026486 0 0 Z " fill="#FB4C07" transform="translate(67.55908203125,3.498291015625)"/>
<path d="M0 0 C1.23219017 -0.00788544 1.23219017 -0.00788544 2.48927307 -0.01593018 C5.20869892 -0.02914905 7.92754069 -0.02038391 10.64697266 -0.01025391 C12.53642896 -0.01227449 14.4258845 -0.0151858 16.31533813 -0.01895142 C20.27817194 -0.02337765 24.24080302 -0.01693555 28.20361328 -0.00292969 C33.28022137 0.01413898 38.35635285 0.00433761 43.43294334 -0.01364708 C47.33632994 -0.0244968 51.23960391 -0.02103271 55.14299393 -0.0132637 C57.01447226 -0.01126377 58.88596086 -0.01371371 60.75742722 -0.02070236 C63.37631983 -0.02833375 65.99444563 -0.01668812 68.61328125 0 C69.38540451 -0.00607269 70.15752777 -0.01214539 70.95304871 -0.0184021 C75.41475957 0.03418473 78.47453102 0.46844196 81.93603516 3.38818359 C83.46305261 11.57854993 79.83722287 18.84360722 76.78710938 26.30078125 C75.96522453 28.31659175 75.16739601 30.34014558 74.37744141 32.36865234 C71.84752557 38.8250234 69.15937403 45.16303511 66.2722168 51.46801758 C64.95574121 54.34511688 63.65536684 57.2290277 62.35791016 60.11474609 C56.93973887 72.10201069 51.27862795 83.86189151 44.93603516 95.38818359 C44.27603516 95.38818359 43.61603516 95.38818359 42.93603516 95.38818359 C42.61699219 96.64501953 42.61699219 96.64501953 42.29150391 97.92724609 C40.60468839 102.23421596 38.18787434 105.23714191 35.24853516 108.76318359 C34.70471191 109.42729248 34.16088867 110.09140137 33.60058594 110.77563477 C32.05557911 112.65493996 30.49847744 114.52336748 28.93603516 116.38818359 C28.27732422 117.18095703 27.61861328 117.97373047 26.93994141 118.79052734 C18.59808923 128.57269932 9.31314374 136.85582362 -1.06396484 144.38818359 C-2.66111328 145.55027344 -2.66111328 145.55027344 -4.29052734 146.73583984 C-23.77421224 160.5545604 -54.20778433 178.64783637 -79.06396484 176.38818359 C-80.06396484 175.38818359 -80.06396484 175.38818359 -80.29052734 173.15771484 C-80.02094951 169.86235823 -79.03299688 167.96537757 -77.43896484 165.07568359 C-74.44755059 159.37707496 -72.15208905 153.60013861 -69.98144531 147.55688477 C-68.14940331 142.47362206 -68.14940331 142.47362206 -67.06396484 141.38818359 C-65.39467803 141.17368236 -63.72422471 140.96593457 -62.05004883 140.79370117 C-48.5876414 139.40340051 -36.5036073 136.00637245 -24.40380859 129.97412109 C-21.3288091 128.5139459 -18.31371098 127.38734451 -15.06396484 126.38818359 C-15.06396484 125.72818359 -15.06396484 125.06818359 -15.06396484 124.38818359 C-13.48193359 123.30224609 -13.48193359 123.30224609 -11.25146484 122.01318359 C10.1979507 108.17594233 18.62469574 81.60250267 27.79931641 59.16699219 C28.82853383 56.65098 29.86572588 54.13842297 30.90478516 51.62646484 C31.45759706 50.27650255 32.00974207 48.92626685 32.56103516 47.57568359 C33.26099609 45.86445312 33.26099609 45.86445312 33.97509766 44.11865234 C35.10202162 41.39897683 35.10202162 41.39897683 34.93603516 38.38818359 C15.79603516 38.05818359 -3.34396484 37.72818359 -23.06396484 37.38818359 C-23.06396484 30.63959256 -23.06396484 30.63959256 -21.34912109 26.75146484 C-20.99269531 25.92710938 -20.63626953 25.10275391 -20.26904297 24.25341797 C-19.7034668 22.98981445 -19.7034668 22.98981445 -19.12646484 21.70068359 C-18.38748546 20.00958224 -17.64917529 18.31818826 -16.91162109 16.62646484 C-16.58170166 15.88436768 -16.25178223 15.14227051 -15.91186523 14.37768555 C-14.97130979 12.24527899 -14.97130979 12.24527899 -14.06396484 9.38818359 C-13.40396484 9.38818359 -12.74396484 9.38818359 -12.06396484 9.38818359 C-11.96083984 8.46005859 -11.85771484 7.53193359 -11.75146484 6.57568359 C-10.26749013 -0.30456283 -6.31138495 -0.04937967 0 0 Z " fill="#FDFBF9" transform="translate(136.06396484375,49.61181640625)"/>
<path d="M0 0 C4.48545258 1.22330525 7.01985351 2.42128505 10 6 C11.30200195 9.07421875 11.30200195 9.07421875 12.42578125 12.6875 C12.63270096 13.34177979 12.83962067 13.99605957 13.05281067 14.67016602 C13.71484568 16.7763226 14.35833582 18.88755702 15 21 C15.43352872 22.40121298 15.86760993 23.80225514 16.30224609 25.203125 C17.6172468 29.46280447 18.90365723 33.73084774 20.1875 38 C20.62937378 39.46229505 21.07143052 40.92453483 21.51367188 42.38671875 C28.32785386 64.95237967 28.32785386 64.95237967 26 71 C22.68452197 75.81733913 18.61596126 80.03910267 14.60083008 84.27270508 C13.10501698 85.88668673 11.69840704 87.54073814 10.30859375 89.24609375 C8.40010514 91.52271722 6.57639935 93.41200315 4.3125 95.3125 C1.30318744 97.86957821 -1.60991862 100.49656708 -4.5 103.1875 C-13.74522006 111.51244548 -23.95181619 118.73091726 -34.25 125.6875 C-34.86963623 126.1095874 -35.48927246 126.5316748 -36.12768555 126.96655273 C-39.01292636 128.8816558 -41.53373079 130.49378742 -45 131 C-45 131.66 -45 132.32 -45 133 C-62.5706779 143.9321323 -81.9270991 152.09848084 -101.0625 159.875 C-102.12057861 160.30989746 -103.17865723 160.74479492 -104.26879883 161.19287109 C-105.24357178 161.58039551 -106.21834473 161.96791992 -107.22265625 162.3671875 C-108.07609619 162.70862793 -108.92953613 163.05006836 -109.80883789 163.40185547 C-112 164 -112 164 -115 163 C-114.12859375 162.5153125 -113.2571875 162.030625 -112.359375 161.53125 C-101.11397013 155.22568295 -90.46671537 148.35038792 -80.36303711 140.32470703 C-77.68619749 138.21307634 -75.13151821 136.37003922 -72 135 C-72 134.34 -72 133.68 -72 133 C-70.53125 131.5546875 -70.53125 131.5546875 -68.5 129.875 C-60.64237745 123.16558638 -51.68303146 115.36606292 -47 106 C-46.34 106 -45.68 106 -45 106 C-44.63648438 104.96939453 -44.63648438 104.96939453 -44.265625 103.91796875 C-42.76942994 100.46840792 -40.81870956 97.43483005 -38.75 94.3125 C-37.93147356 93.05261446 -37.11376652 91.79219621 -36.296875 90.53125 C-34.99610373 88.53038883 -33.69391536 86.53047211 -32.390625 84.53125 C-27.55470632 76.81551458 -23.86359921 68.51372274 -20.04882812 60.26220703 C-19.13122912 58.2830468 -18.202281 56.3100321 -17.265625 54.33984375 C-14.37015835 48.19817093 -11.78544436 42.01771162 -9.43359375 35.6484375 C-8.33277034 32.84688692 -7.16932654 30.14366948 -5.91015625 27.4140625 C-1.59403 17.94303711 1.36913172 10.59175514 0 0 Z " fill="#FDFAF8" transform="translate(226,51)"/>
<path d="M0 0 C0.33 0 0.66 0 1 0 C1.93693899 8.81124019 -0.71079212 15.44419601 -4.1875 23.4375 C-4.91163086 25.16323242 -4.91163086 25.16323242 -5.65039062 26.92382812 C-8.2927633 33.18394594 -11.05047242 39.38857643 -13.88476562 45.56396484 C-15.04468994 48.09761738 -16.17982147 50.64156886 -17.3125 53.1875 C-25.04217568 70.13981052 -33.39753613 88.30911049 -45 103 C-45.66 103 -46.32 103 -47 103 C-47.27070313 103.99193359 -47.27070313 103.99193359 -47.546875 105.00390625 C-49.66916038 109.37969358 -52.88968701 112.46431661 -56.25 115.9375 C-56.90613281 116.62779297 -57.56226563 117.31808594 -58.23828125 118.02929688 C-60.14717849 120.03117221 -62.07183451 122.01670072 -64 124 C-64.57814453 124.60730957 -65.15628906 125.21461914 -65.75195312 125.84033203 C-67.12905661 127.26554211 -68.55977677 128.63860556 -70 130 C-70.66 130 -71.32 130 -72 130 C-72 130.66 -72 131.32 -72 132 C-73.29077148 133.24584961 -73.29077148 133.24584961 -75.12109375 134.65234375 C-75.80123535 135.17642822 -76.48137695 135.7005127 -77.18212891 136.24047852 C-77.92640137 136.80049561 -78.67067383 137.3605127 -79.4375 137.9375 C-80.19724121 138.51363037 -80.95698242 139.08976074 -81.73974609 139.68334961 C-91.70933485 147.14977377 -102.14555892 153.89613898 -113 160 C-113 160.66 -113 161.32 -113 162 C-113.99 162 -114.98 162 -116 162 C-116 161.01 -116 160.02 -116 159 C-117.65 158.67 -119.3 158.34 -121 158 C-118.16184439 155.68690318 -115.1860449 154.0002936 -111.92431641 152.34936523 C-103.91760087 148.29521633 -97.0322296 143.59936201 -90 138 C-89.21109375 137.40316406 -88.4221875 136.80632812 -87.609375 136.19140625 C-81.77844054 131.77742964 -76.35368866 126.97814443 -71 122 C-70.34386719 121.40960938 -69.68773437 120.81921875 -69.01171875 120.2109375 C-64.38322659 115.86034652 -60.56430057 110.99609632 -56.75 105.9375 C-56.24227051 105.26452881 -55.73454102 104.59155762 -55.21142578 103.89819336 C-52.13930431 99.74702096 -49.47555955 95.53263165 -47 91 C-46.34 91 -45.68 91 -45 91 C-44.77441406 90.20722656 -44.54882812 89.41445312 -44.31640625 88.59765625 C-42.61690019 83.95301209 -40.2958668 79.77597842 -37.9375 75.4375 C-32.69296726 65.61664349 -28.2089576 55.59490974 -23.95947266 45.31103516 C-22.63034413 42.10962786 -21.252737 38.93079122 -19.875 35.75 C-19.41351563 34.66589844 -18.95203125 33.58179688 -18.4765625 32.46484375 C-17.69039918 30.62006369 -16.90231914 28.77605523 -16.10058594 26.93798828 C-12.37859819 18.400321 -8.99097516 10.36370406 -8 1 C-7.67 1 -7.34 1 -7 1 C-6.01 4.96 -6.01 4.96 -5 9 C-3.68 9 -2.36 9 -1 9 C-0.67 6.03 -0.34 3.06 0 0 Z " fill="#F5520F" transform="translate(226,54)"/>
<path d="M0 0 C0.33 0 0.66 0 1 0 C0.06666667 6.66666667 0.06666667 6.66666667 -0.5625 9.8125 C-2.40538037 23.2391998 0.76233821 36.00274438 8.4921875 47.15234375 C15.73330575 56.17775669 26.04667801 61.87572639 37.51391602 63.31567383 C40.05970427 63.47193513 42.57456746 63.51874258 45.125 63.5 C46.0329834 63.49500488 46.9409668 63.49000977 47.87646484 63.48486328 C60.89411263 63.15330542 71.93971832 58.7806752 83 52 C84.38638672 51.16855469 84.38638672 51.16855469 85.80078125 50.3203125 C86.52652344 49.88460937 87.25226563 49.44890625 88 49 C84.04813415 58.78031605 71.08535144 64.92215621 62 69 C49.77115939 73.99196634 34.55438593 75.57145456 21.8125 71.4375 C10.26002462 66.25693682 1.74457083 56.99755356 -2.9375 45.3125 C-7.58679433 31.91067507 -7.48544024 17.11257717 -2.1328125 3.8515625 C-1.3125 2.1875 -1.3125 2.1875 0 0 Z " fill="#FDF8F4" transform="translate(45,107)"/>
<path d="M0 0 C5.18613207 9.6990792 4.29205917 20.93648622 4.2746582 31.62011719 C4.27901174 33.39195977 4.28419701 35.16380048 4.29014587 36.93563843 C4.30348 41.72511113 4.30412065 46.51450464 4.30158257 51.30399227 C4.30050879 55.31450059 4.30540677 59.32499316 4.310188 63.33549809 C4.32126447 72.80505772 4.32173146 82.27457767 4.31567383 91.74414062 C4.30963883 101.48369353 4.32193733 111.2231018 4.3432439 120.96263003 C4.36091218 129.35025152 4.36685293 137.73782719 4.36360615 146.12546659 C4.36180104 151.12360905 4.36435167 156.1216484 4.37832069 161.11977386 C4.39097931 165.82471272 4.38887967 170.52942777 4.37590981 175.23436356 C4.37356164 176.95070347 4.37621472 178.66705953 4.38453293 180.38338089 C4.44611889 194.09043182 3.88431399 207.22027396 -4 219 C-4.33 219 -4.66 219 -5 219 C-5 217.35 -5 215.7 -5 214 C-4.34 214 -3.68 214 -3 214 C-3 212.68 -3 211.36 -3 210 C-2.34 210 -1.68 210 -1 210 C-1.020625 209.030625 -1.04125 208.06125 -1.0625 207.0625 C-1 204 -1 204 0 203 C0.09780042 200.38237266 0.12994511 197.79114693 0.12025452 195.17308044 C0.12110894 194.34326489 0.12196337 193.51344934 0.12284368 192.65848786 C0.12450103 189.85620681 0.11897297 187.05398459 0.11352539 184.25170898 C0.11324355 182.25158693 0.1134012 180.25146477 0.1139679 178.25134277 C0.11425598 172.80321965 0.10835745 167.35511834 0.10139394 161.9070003 C0.09516226 156.22015158 0.09455675 150.53330242 0.09336853 144.84645081 C0.09025466 134.06940041 0.08204053 123.2923601 0.07201904 112.51531416 C0.06085962 100.24950393 0.05534789 87.98369322 0.05032361 75.71787918 C0.03985796 50.47858051 0.02225745 25.23929082 0 0 Z " fill="#C13C0E" transform="translate(277,37)"/>
<path d="M0 0 C2.475 0.99 2.475 0.99 5 2 C5 2.66 5 3.32 5 4 C5.66 4 6.32 4 7 4 C7 4.66 7 5.32 7 6 C7.61875 5.505 8.2375 5.01 8.875 4.5 C11 3 11 3 13 3 C14.4606285 5.64738916 15 6.89448334 15 10 C16.7015625 10.4640625 16.7015625 10.4640625 18.4375 10.9375 C22 12 22 12 23 13 C25.22859225 13.12487246 27.46119267 13.17815211 29.69311523 13.20532227 C30.7579202 13.22015467 30.7579202 13.22015467 31.84423637 13.23528671 C34.24898717 13.26731249 36.65375484 13.29194722 39.05859375 13.31640625 C40.78598891 13.33728441 42.51338043 13.35846621 44.24076843 13.37992859 C48.97905501 13.43686775 53.71739103 13.48623105 58.45578766 13.53303528 C61.42974217 13.56242334 64.40368318 13.59296747 67.37762451 13.62365723 C99.59036743 13.9512955 131.80451075 14.15761788 164.01882935 14.23117065 C168.75298836 14.24227199 173.48704794 14.26014317 178.22116089 14.28372192 C183.83176178 14.31105046 189.44220046 14.32334947 195.05286598 14.32413673 C197.1231598 14.32676427 199.19345433 14.33446048 201.26370811 14.34760094 C204.10584525 14.36464928 206.94738324 14.36287644 209.78955078 14.35644531 C210.61076636 14.36566293 211.43198195 14.37488054 212.27808285 14.38437748 C217.81012536 14.34448248 221.91540132 13.19417727 227 11 C227 10.67 227 10.34 227 10 C229.64 9.67 232.28 9.34 235 9 C234.67 8.01 234.34 7.02 234 6 C237.465 5.505 237.465 5.505 241 5 C234.04085135 12.82904223 224.40501585 16.26969971 214.03730035 17.17053628 C208.62711062 17.44561811 203.21350382 17.39797976 197.7980957 17.37231445 C195.9882893 17.37474692 194.17848425 17.37847064 192.36868286 17.38337708 C187.48664065 17.39272536 182.60480104 17.38341302 177.72277474 17.37004495 C172.598076 17.35866917 167.47338634 17.36284254 162.34867859 17.36479187 C153.74861366 17.36567268 145.14862789 17.3546372 136.54858398 17.33618164 C126.62032538 17.31499713 116.69218246 17.31150974 106.76390582 17.3177436 C97.18935648 17.32344638 87.61484768 17.31778211 78.04030418 17.30657005 C73.97553949 17.30193825 69.9107997 17.30104403 65.8460331 17.3031559 C61.05821268 17.30504542 56.27050933 17.29688399 51.48271561 17.2810955 C49.73041582 17.27686916 47.97810412 17.27599094 46.22580147 17.27878571 C28.93577463 17.30217013 14.75721643 15.11690593 1.703125 2.83984375 C0 1 0 1 0 0 Z " fill="#B2400F" transform="translate(20,263)"/>
<path d="M0 0 C0.33 0 0.66 0 1 0 C1 1.98 1 3.96 1 6 C0.34 6 -0.32 6 -1 6 C-1 6.66 -1 7.32 -1 8 C-1.66 8 -2.32 8 -3 8 C-3 8.66 -3 9.32 -3 10 C-1.68 10 -0.36 10 1 10 C1 9.01 1 8.02 1 7 C1.99 7 2.98 7 4 7 C3.34 8.65 2.68 10.3 2 12 C1.34 12 0.68 12 0 12 C-0.27070313 12.99193359 -0.27070313 12.99193359 -0.546875 14.00390625 C-2.66916038 18.37969358 -5.88968701 21.46431661 -9.25 24.9375 C-9.90613281 25.62779297 -10.56226563 26.31808594 -11.23828125 27.02929688 C-13.14717849 29.03117221 -15.07183451 31.01670072 -17 33 C-17.57814453 33.60730957 -18.15628906 34.21461914 -18.75195312 34.84033203 C-20.12905661 36.26554211 -21.55977677 37.63860556 -23 39 C-23.66 39 -24.32 39 -25 39 C-25 39.66 -25 40.32 -25 41 C-26.29077148 42.24584961 -26.29077148 42.24584961 -28.12109375 43.65234375 C-28.80123535 44.17642822 -29.48137695 44.7005127 -30.18212891 45.24047852 C-30.92640137 45.80049561 -31.67067383 46.3605127 -32.4375 46.9375 C-33.19724121 47.51363037 -33.95698242 48.08976074 -34.73974609 48.68334961 C-44.70933485 56.14977377 -55.14555892 62.89613898 -66 69 C-66 69.66 -66 70.32 -66 71 C-66.99 71 -67.98 71 -69 71 C-69 70.01 -69 69.02 -69 68 C-70.65 67.67 -72.3 67.34 -74 67 C-71.16184439 64.68690318 -68.1860449 63.0002936 -64.92431641 61.34936523 C-56.91760087 57.29521633 -50.0322296 52.59936201 -43 47 C-42.21109375 46.40316406 -41.4221875 45.80632812 -40.609375 45.19140625 C-34.77844054 40.77742964 -29.35368866 35.97814443 -24 31 C-23.34386719 30.40960938 -22.68773437 29.81921875 -22.01171875 29.2109375 C-17.38322659 24.86034652 -13.56430057 19.99609632 -9.75 14.9375 C-9.24227051 14.26452881 -8.73454102 13.59155762 -8.21142578 12.89819336 C-5.13930431 8.74702096 -2.47555955 4.53263165 0 0 Z " fill="#EE5C21" transform="translate(179,145)"/>
<path d="M0 0 C0 1.32 0 2.64 0 4 C-0.66 4 -1.32 4 -2 4 C-2.309375 4.94875 -2.61875 5.8975 -2.9375 6.875 C-4 10 -4 10 -5 12 C-5.66 12 -6.32 12 -7 12 C-7.33 13.32 -7.66 14.64 -8 16 C-8.66 16 -9.32 16 -10 16 C-10.433125 17.093125 -10.86625 18.18625 -11.3125 19.3125 C-12.68070219 22.76558172 -12.68070219 22.76558172 -14.5346756 24.12670994 C-16.82643197 27.05652155 -16.41963758 30.22901859 -16.39440918 33.79685974 C-16.40050028 34.59949959 -16.40659139 35.40213945 -16.41286707 36.22910172 C-16.42956263 38.92818611 -16.42471185 41.6268021 -16.41992188 44.32592773 C-16.42725886 46.25761915 -16.435844 48.18930616 -16.44558716 50.12098694 C-16.46786237 55.37768432 -16.47073046 60.63422521 -16.46883965 65.89096332 C-16.46872011 70.28157194 -16.47727837 74.67214722 -16.48561716 79.06274658 C-16.50487663 89.42914197 -16.50772742 99.79545685 -16.50097656 110.16186523 C-16.49434906 120.84149599 -16.51714232 131.5207802 -16.55429029 142.20034069 C-16.58504123 151.37505531 -16.59634101 160.54965885 -16.59245348 169.72442394 C-16.59038981 175.20110274 -16.5958047 180.67751252 -16.62034607 186.15414238 C-16.64269671 191.31298109 -16.64066622 196.47126033 -16.62041855 201.63010216 C-16.61702206 203.5165984 -16.62203846 205.40313287 -16.63640213 207.28957748 C-16.71222872 217.9930777 -16.29347731 226.42251178 -11 236 C-11.99 236.99 -11.99 236.99 -13 238 C-13.63032133 236.79443396 -14.2539497 235.58536811 -14.875 234.375 C-15.22304687 233.70210937 -15.57109375 233.02921875 -15.9296875 232.3359375 C-18.45383925 226.82702236 -19.29288859 221.98307965 -19.26742554 215.95626831 C-19.27195665 215.16331584 -19.27648776 214.37036337 -19.28115618 213.55338204 C-19.2937825 210.90515713 -19.29218094 208.25713834 -19.29052734 205.60888672 C-19.29651385 203.70631141 -19.30331967 201.80373852 -19.31088257 199.90116882 C-19.32854104 194.73764692 -19.33323799 189.57419133 -19.33451414 184.41064215 C-19.33593681 181.18125693 -19.34020869 177.95188852 -19.34550858 174.72250748 C-19.36401097 163.44617902 -19.37217925 152.16989782 -19.37060547 140.89355469 C-19.36940522 130.39966239 -19.39048422 119.90597615 -19.4220928 109.41213596 C-19.44829453 100.39023624 -19.45897107 91.36840363 -19.45769465 82.34646618 C-19.457186 76.96376179 -19.46281489 71.5812404 -19.48405075 66.19857407 C-19.50349782 61.13087273 -19.50351345 56.0635277 -19.48901749 50.99581337 C-19.48693604 49.14317743 -19.49159035 47.29051881 -19.5037384 45.43792152 C-19.58451062 32.25880809 -18.24584787 21.38633236 -11 10 C-10.34 10 -9.68 10 -9 10 C-8.773125 9.278125 -8.54625 8.55625 -8.3125 7.8125 C-6.69128911 4.33847667 -4.19897213 0 0 0 Z " fill="#F05919" transform="translate(25,16)"/>
<path d="M0 0 C1.81657356 -0.00065712 1.81657356 -0.00065712 3.66984558 -0.00132751 C6.95437123 0.00039055 10.23850122 0.01531852 13.52294898 0.03639436 C16.96887948 0.05529193 20.41481974 0.05692181 23.86079407 0.06047058 C30.36995596 0.06975298 36.87896466 0.0943145 43.38805944 0.12451905 C50.80532219 0.15818241 58.2225927 0.17457891 65.63991296 0.18960536 C80.88283308 0.22086803 96.1256008 0.27355345 111.3684082 0.34057617 C111.3684082 1.33057617 111.3684082 2.32057617 111.3684082 3.34057617 C95.73019018 3.49475693 80.09192668 3.64278134 64.45358276 3.78353977 C57.19192477 3.84904337 49.93029561 3.91653765 42.66870117 3.98876953 C36.33720184 4.05174455 30.00568017 4.11093228 23.67410374 4.16563171 C20.32368143 4.1947072 16.97332502 4.22620342 13.62295532 4.26111031 C9.87667368 4.29982045 6.1303897 4.33183677 2.3840332 4.36230469 C1.28135605 4.3752507 0.17867889 4.38819672 -0.95741272 4.40153503 C-6.62287648 4.44028889 -12.02941503 4.20036697 -17.6315918 3.34057617 C-17.6315918 4.00057617 -17.6315918 4.66057617 -17.6315918 5.34057617 C-18.3947168 5.54682617 -19.1578418 5.75307617 -19.9440918 5.96557617 C-22.91977062 7.14193753 -22.91977062 7.14193753 -24.0690918 10.40307617 C-24.8425293 11.85713867 -24.8425293 11.85713867 -25.6315918 13.34057617 C-28.8190918 14.21557617 -28.8190918 14.21557617 -31.6315918 14.34057617 C-31.6315918 13.35057617 -31.6315918 12.36057617 -31.6315918 11.34057617 C-33.2815918 11.67057617 -34.9315918 12.00057617 -36.6315918 12.34057617 C-27.20369456 1.73419178 -13.56813549 -0.13067049 0 0 Z " fill="#BC4410" transform="translate(61.631591796875,3.659423828125)"/>
<path d="M0 0 C1.65 0.66 3.3 1.32 5 2 C5 2.99 5 3.98 5 5 C5.66 4.67 6.32 4.34 7 4 C8.33333333 3.33333333 9.66666667 2.66666667 11 2 C11 1.34 11 0.68 11 0 C11.99 0.33 12.98 0.66 14 1 C-0.59381909 19.76841037 -0.59381909 19.76841037 -8 21 C-8 21.66 -8 22.32 -8 23 C-10.55886504 24.32002556 -13.12167068 25.63113782 -15.6875 26.9375 C-16.7693457 27.49727539 -16.7693457 27.49727539 -17.87304688 28.06835938 C-21.56505742 29.93965239 -24.83693096 31.48269556 -29 32 C-29 31.34 -29 30.68 -29 30 C-27.02 29.67 -25.04 29.34 -23 29 C-23 28.01 -23 27.02 -23 26 C-24.00844971 26.32452148 -25.01689941 26.64904297 -26.0559082 26.98339844 C-29.78194436 28.04378807 -33.21970382 28.25828793 -37.10546875 28.265625 C-38.41837891 28.26820313 -39.73128906 28.27078125 -41.08398438 28.2734375 C-41.75776123 28.26924805 -42.43153809 28.26505859 -43.12573242 28.26074219 C-45.19284026 28.24997218 -47.25908964 28.26070343 -49.32617188 28.2734375 C-51.28973633 28.26957031 -51.28973633 28.26957031 -53.29296875 28.265625 C-54.4843042 28.26336914 -55.67563965 28.26111328 -56.90307617 28.25878906 C-59.88178646 28.00987831 -61.580526 27.72393364 -64 26 C-64.33 25.01 -64.66 24.02 -65 23 C-64.46270264 23.21148682 -63.92540527 23.42297363 -63.37182617 23.64086914 C-57.56876085 25.77068101 -52.47442527 26.51403443 -46.3125 26.4375 C-45.44036865 26.42920166 -44.5682373 26.42090332 -43.66967773 26.41235352 C-26.00022323 25.95562307 -10.7639767 17.96013847 2 6 C2.33 5.34 2.66 4.68 3 4 C1.68 4.66 0.36 5.32 -1 6 C-1.042721 4.33388095 -1.04063832 2.66617115 -1 1 C-0.67 0.67 -0.34 0.34 0 0 Z " fill="#F05E20" transform="translate(129,153)"/>
<path d="M0 0 C2.64 0 5.28 0 8 0 C7.93993922 1.45947705 7.8511311 2.91779272 7.75 4.375 C7.68039063 5.59316406 7.68039063 5.59316406 7.609375 6.8359375 C7.40828125 7.55007812 7.2071875 8.26421875 7 9 C5.015625 10.1015625 5.015625 10.1015625 3 11 C2.67 11.99 2.34 12.98 2 14 C1.34 14 0.68 14 0 14 C-1.97693272 18.94233179 -2.08859228 22.77305571 -2 28 C-2.33 28.33 -2.66 28.66 -3 29 C-2.89418544 33.39537386 -2.54445184 37.66911772 -0.875 41.75 C0.29978369 44.77087233 -0.27859861 46.89797401 -1 50 C-5.53696562 45.46303438 -6.18708677 36.9627783 -6.3125 30.75 C-6.17557092 26.26737421 -5.18953741 22.3120731 -4 18 C-4 16.68 -4 15.36 -4 14 C-8.14840174 24.18244064 -9.34833131 34.05882567 -10 45 C-10.33 45 -10.66 45 -11 45 C-11 38.4 -11 31.8 -11 25 C-10.34 25 -9.68 25 -9 25 C-8.67 21.37 -8.34 17.74 -8 14 C-7.01 13.67 -6.02 13.34 -5 13 C-4.67 12.01 -4.34 11.02 -4 10 C-3.34 10.33 -2.68 10.66 -2 11 C-0.19769832 7.17010894 0.19622241 4.21878192 0 0 Z " fill="#F95612" transform="translate(49,94)"/>
<path d="M0 0 C0.33 0 0.66 0 1 0 C0.06666667 6.66666667 0.06666667 6.66666667 -0.5625 9.8125 C-2.23037216 21.96414002 1.01022031 32.60062946 5 44 C4.01 44 3.02 44 2 44 C2.33 47.63 2.66 51.26 3 55 C-4.50241166 47.49758834 -5.94649074 36.04863031 -6.25 25.875 C-6.17761772 16.9099379 -4.66534647 7.77557744 0 0 Z " fill="#FEEDE1" transform="translate(45,107)"/>
<path d="M0 0 C2.4375 1.5625 2.4375 1.5625 4 4 C4.07793802 8.28659108 3.40275063 10.42638547 0.9375 13.9375 C-3.11201165 16.78077414 -5.13229653 16.63838734 -10 16 C-12.13586678 12.79619983 -12.23132175 11.98060033 -12.125 8.3125 C-12.10695313 7.50425781 -12.08890625 6.69601563 -12.0703125 5.86328125 C-12.04710938 5.24839844 -12.02390625 4.63351563 -12 4 C-11.34 4 -10.68 4 -10 4 C-10 3.34 -10 2.68 -10 2 C-6.59575912 -0.09491746 -3.96585158 -0.49573145 0 0 Z " fill="#FDF4EE" transform="translate(107,55)"/>
<path d="M0 0 C1.31534494 3.65857532 0.65468309 6.08026481 -0.4375 9.75 C-0.72496094 10.73484375 -1.01242188 11.7196875 -1.30859375 12.734375 C-1.53675781 13.48203125 -1.76492187 14.2296875 -2 15 C-2.66 15 -3.32 15 -4 15 C-4.2165625 15.8971875 -4.2165625 15.8971875 -4.4375 16.8125 C-4.8872439 18.56150404 -5.42892341 20.28677023 -6 22 C-4.02 21.67 -2.04 21.34 0 21 C-0.5439085 26.47361889 -2.55393801 30.58317001 -5.0625 35.375 C-5.43955078 36.11105469 -5.81660156 36.84710938 -6.20507812 37.60546875 C-7.12944364 39.40739646 -8.06372614 41.20423099 -9 43 C-9.33 43 -9.66 43 -10 43 C-10 41.02 -10 39.04 -10 37 C-11.32 36.67 -12.64 36.34 -14 36 C-14 36.99 -14 37.98 -14 39 C-14.66 39 -15.32 39 -16 39 C-14.07759807 32.86726708 -11.79802493 27.02898121 -9.125 21.1875 C-8.41817208 19.62158925 -7.71244598 18.05518069 -7.0078125 16.48828125 C-6.6665332 15.7298291 -6.32525391 14.97137695 -5.97363281 14.18994141 C-3.88832354 9.49956423 -1.93836693 4.75272662 0 0 Z M-12 32 C-11.67 33.32 -11.34 34.64 -11 36 C-10.34 35.34 -9.68 34.68 -9 34 C-9.33 33.34 -9.66 32.68 -10 32 C-10.66 32 -11.32 32 -12 32 Z " fill="#F35717" transform="translate(208,85)"/>
<path d="M0 0 C2.475 0.99 2.475 0.99 5 2 C5 2.66 5 3.32 5 4 C5.66 4 6.32 4 7 4 C7 4.66 7 5.32 7 6 C7.61875 5.505 8.2375 5.01 8.875 4.5 C11 3 11 3 13 3 C14.4606285 5.64738916 15 6.89448334 15 10 C16.7015625 10.4640625 16.7015625 10.4640625 18.4375 10.9375 C22 12 22 12 23 13 C25.79908707 13.1252097 28.57470329 13.18608723 31.37524414 13.20532227 C32.25321152 13.21522186 33.13117889 13.22512146 34.03575134 13.23532104 C36.95219175 13.26703427 39.86864848 13.29173211 42.78515625 13.31640625 C44.80155371 13.33696731 46.81794677 13.35796354 48.83433533 13.37937927 C54.15260266 13.43468759 59.47090945 13.4840581 64.78924561 13.53222656 C70.21174651 13.5823778 75.63418982 13.63809707 81.05664062 13.69335938 C91.70437793 13.80104802 102.35216515 13.90246906 113 14 C113 14.33 113 14.66 113 15 C101.27327759 15.069609 89.5466046 15.12286669 77.81971741 15.15543652 C72.37404058 15.17107093 66.92850545 15.19226869 61.48291016 15.22631836 C56.22445285 15.25899095 50.96613157 15.27686974 45.70758057 15.28463173 C43.70458842 15.29016105 41.70160344 15.30095844 39.69866943 15.31719017 C36.88619077 15.33906936 34.07426927 15.34196254 31.26171875 15.34057617 C30.43956375 15.351362 29.61740875 15.36214783 28.77033997 15.3732605 C21.07915209 15.33242233 15.03407972 13.11338999 8.75 8.5625 C7.94046875 7.98628906 7.1309375 7.41007812 6.296875 6.81640625 C4.01287773 5.01018392 1.97752904 3.13627564 0 1 C0 0.67 0 0.34 0 0 Z " fill="#F14C0B" transform="translate(20,263)"/>
<path d="M0 0 C7.63297898 -0.06991969 15.26592419 -0.12302223 22.8991518 -0.15543652 C26.44468417 -0.17100425 29.9899953 -0.19207665 33.53540039 -0.22631836 C37.62388064 -0.26555202 41.71213335 -0.27978254 45.80078125 -0.29296875 C47.05643387 -0.30845261 48.31208649 -0.32393646 49.60578918 -0.33988953 C60.79851808 -0.34200229 69.97892621 2.12555176 80 7 C80 7.66 80 8.32 80 9 C81.175625 9.4021875 81.175625 9.4021875 82.375 9.8125 C85 11 85 11 87 14 C86.34 14.33 85.68 14.66 85 15 C84.505 14.01 84.505 14.01 84 13 C83.01 12.67 82.02 12.34 81 12 C81 11.34 81 10.68 81 10 C80.39671875 9.80664062 79.7934375 9.61328125 79.171875 9.4140625 C78.37265625 9.15367188 77.5734375 8.89328125 76.75 8.625 C75.96109375 8.36976562 75.1721875 8.11453125 74.359375 7.8515625 C72.13372042 7.04826333 70.09068328 6.10288338 68 5 C68 4.34 68 3.68 68 3 C67.42668945 3.00523682 66.85337891 3.01047363 66.26269531 3.01586914 C63.59180865 3.03702839 60.92093971 3.04978124 58.25 3.0625 C56.89841797 3.07506836 56.89841797 3.07506836 55.51953125 3.08789062 C50.79295184 3.10465154 46.14493265 2.96722893 41.4375 2.53125 C33.22306973 1.78152025 24.99216241 1.64368029 16.75 1.4375 C15.11848134 1.39418965 13.48697081 1.35057196 11.85546875 1.30664062 C7.90373043 1.20089024 3.95190604 1.09927648 0 1 C0 0.67 0 0.34 0 0 Z " fill="#C64814" transform="translate(177,4)"/>
<path d="M0 0 C0.33 0 0.66 0 1 0 C2.14281598 9.18485435 -1.10025335 15.94516615 -5 24 C-5.33 24 -5.66 24 -6 24 C-6.4640625 22.2984375 -6.4640625 22.2984375 -6.9375 20.5625 C-7.62924531 17.21224901 -7.62924531 17.21224901 -9 16 C-9.10957031 16.59167969 -9.21914062 17.18335937 -9.33203125 17.79296875 C-10.24692383 22.35255537 -11.07400811 26.25473039 -14 30 C-14.99 30.33 -15.98 30.66 -17 31 C-15.41807475 25.30249687 -13.5685712 19.80596527 -11.375 14.3125 C-9.59799066 9.79793574 -8.33723389 5.8336858 -8 1 C-7.67 1 -7.34 1 -7 1 C-6.34 3.64 -5.68 6.28 -5 9 C-3.68 9 -2.36 9 -1 9 C-0.67 6.03 -0.34 3.06 0 0 Z " fill="#F6500C" transform="translate(226,54)"/>
<path d="M0 0 C2.475 0.99 2.475 0.99 5 2 C5 2.99 5 3.98 5 5 C5.66 4.67 6.32 4.34 7 4 C8.33333333 3.33333333 9.66666667 2.66666667 11 2 C11 1.34 11 0.68 11 0 C11.99 0.33 12.98 0.66 14 1 C2.87208734 15.18114947 2.87208734 15.18114947 -2 18 C-5.4375 18.375 -5.4375 18.375 -8 18 C-6.63422544 13.71506993 -4.79318655 11.56854295 -1.375 8.6875 C-0.55773437 7.99011719 0.25953125 7.29273438 1.1015625 6.57421875 C2.04128906 5.79498047 2.04128906 5.79498047 3 5 C1.68 5.33 0.36 5.66 -1 6 C-1.042721 4.33388095 -1.04063832 2.66617115 -1 1 C-0.67 0.67 -0.34 0.34 0 0 Z " fill="#EE5E20" transform="translate(129,153)"/>
<path d="M0 0 C0 1.32 0 2.64 0 4 C-0.66 4 -1.32 4 -2 4 C-2.309375 4.94875 -2.61875 5.8975 -2.9375 6.875 C-4 10 -4 10 -5 12 C-5.66 12 -6.32 12 -7 12 C-7.33 13.32 -7.66 14.64 -8 16 C-8.66 16 -9.32 16 -10 16 C-10.433125 17.093125 -10.86625 18.18625 -11.3125 19.3125 C-12.18073605 21.5037624 -12.72302009 22.77287648 -14.5625 24.28125 C-16.83569954 26.99920597 -16.52844416 29.72008268 -16.6875 33.1875 C-16.75324219 34.45980469 -16.81898437 35.73210938 -16.88671875 37.04296875 C-16.94279297 38.50669922 -16.94279297 38.50669922 -17 40 C-19.53286004 36.20070994 -19.57499923 33.3896283 -19 29 C-17.2376016 22.15026601 -14.7949046 15.96342152 -11 10 C-10.34 10 -9.68 10 -9 10 C-8.773125 9.278125 -8.54625 8.55625 -8.3125 7.8125 C-6.69128911 4.33847667 -4.19897213 0 0 0 Z " fill="#BC4C1F" transform="translate(25,16)"/>
<path d="M0 0 C1.23459961 -0.005476 1.23459961 -0.005476 2.49414062 -0.01106262 C5.21838941 -0.01917697 7.94204498 -0.00554965 10.66625977 0.0090332 C12.55811055 0.00955175 14.44996188 0.00903425 16.34181213 0.00752258 C20.3088484 0.00761235 24.27568163 0.01804984 28.24267578 0.03613281 C33.32827257 0.0588046 38.41357219 0.05936733 43.49920559 0.05261517 C47.40683127 0.04927356 51.3143892 0.05590916 55.22200203 0.0657444 C57.09709379 0.06959454 58.97219309 0.07074539 60.84728813 0.06915855 C63.4686506 0.06878773 66.08963223 0.08141352 68.7109375 0.09765625 C69.8745153 0.09394012 69.8745153 0.09394012 71.06159973 0.09014893 C74.82742204 0.12739262 77.72543057 0.26064242 80.92016602 2.37231445 C80.26016602 2.70231445 79.60016602 3.03231445 78.92016602 3.37231445 C77.93016602 3.04231445 76.94016602 2.71231445 75.92016602 2.37231445 C73.2897091 2.25250716 70.68370709 2.18702629 68.05224609 2.16699219 C67.25201523 2.15709259 66.45178436 2.14719299 65.62730408 2.13699341 C62.98146527 2.10539842 60.3356085 2.08062887 57.68969727 2.0559082 C55.85551994 2.03533695 54.02134734 2.01434043 52.18717957 1.99293518 C47.35885441 1.93773222 42.5304866 1.88831509 37.7020874 1.84008789 C32.77539268 1.78985993 27.84875993 1.73418062 22.92211914 1.67895508 C13.25485437 1.57139521 3.5875358 1.46994538 -6.07983398 1.37231445 C-6.07983398 2.03231445 -6.07983398 2.69231445 -6.07983398 3.37231445 C-7.39983398 3.70231445 -8.71983398 4.03231445 -10.07983398 4.37231445 C-9.81170898 4.90856445 -9.54358398 5.44481445 -9.26733398 5.99731445 C-9.03461088 8.94514046 -9.65981958 9.4204294 -11.51733398 11.62231445 C-12.36295898 12.52981445 -13.20858398 13.43731445 -14.07983398 14.37231445 C-14.40983398 13.71231445 -14.73983398 13.05231445 -15.07983398 12.37231445 C-14.74983398 11.38231445 -14.41983398 10.39231445 -14.07983398 9.37231445 C-13.41983398 9.37231445 -12.75983398 9.37231445 -12.07983398 9.37231445 C-11.97670898 8.44418945 -11.87358398 7.51606445 -11.76733398 6.55981445 C-10.28110878 -0.33086606 -6.31785919 -0.06209259 0 0 Z " fill="#FEE2CD" transform="translate(136.079833984375,49.627685546875)"/>
<path d="M0 0 C-1.28254778 0.92938245 -2.57680094 1.84260827 -3.875 2.75 C-4.59429687 3.26046875 -5.31359375 3.7709375 -6.0546875 4.296875 C-15.51248912 9.76584252 -23.89093639 10.55068485 -34.6328125 10.390625 C-36.12066888 10.38314855 -37.60853521 10.37746227 -39.09640503 10.37347412 C-42.97965515 10.35832785 -46.86229027 10.31914424 -50.74530029 10.2746582 C-54.72074061 10.2334651 -58.69628199 10.21541223 -62.671875 10.1953125 C-70.4481946 10.15263657 -78.22401056 10.08452267 -86 10 C-86 9.67 -86 9.34 -86 9 C-84.82395203 8.99120064 -84.82395203 8.99120064 -83.62414551 8.98222351 C-76.20949023 8.92414764 -68.79516528 8.85198672 -61.38080597 8.76428509 C-57.56964767 8.71969361 -53.75859349 8.68041345 -49.94726562 8.65356445 C-46.26418114 8.62741855 -42.58149981 8.58693827 -38.89866638 8.53681374 C-37.49862205 8.52022083 -36.09850811 8.50865961 -34.69837952 8.50238609 C-27.15178607 8.46517335 -20.86897416 8.27802711 -14 5 C-14 4.67 -14 4.34 -14 4 C-11.36 3.67 -8.72 3.34 -6 3 C-6.495 1.515 -6.495 1.515 -7 0 C-3.98968256 -0.93423645 -3.13349732 -1.04449911 0 0 Z " fill="#DF541A" transform="translate(261,269)"/>
<path d="M0 0 C1.258125 0.0825 2.51625 0.165 3.8125 0.25 C4.1425 1.24 4.4725 2.23 4.8125 3.25 C5.4725 3.58 6.1325 3.91 6.8125 4.25 C6.1525 4.25 5.4925 4.25 4.8125 4.25 C4.8125 5.24 4.8125 6.23 4.8125 7.25 C3.69921875 8.95703125 3.69921875 8.95703125 1.8125 10.25 C-1.10546875 10.32421875 -1.10546875 10.32421875 -4.375 9.9375 C-6.00501953 9.75767578 -6.00501953 9.75767578 -7.66796875 9.57421875 C-8.49941406 9.46722656 -9.33085938 9.36023438 -10.1875 9.25 C-9.71699219 8.47269531 -9.24648438 7.69539063 -8.76171875 6.89453125 C-7.79421535 5.26922157 -6.86403666 3.6200977 -6 1.9375 C-3.78027349 -0.12914192 -2.95825649 0.0052082 0 0 Z " fill="#F15B1C" transform="translate(63.1875,80.75)"/>
<path d="M0 0 C0.66 0.66 1.32 1.32 2 2 C1.75 5.5625 1.75 5.5625 1 9 C-1.98212913 10.49106457 -4.71609658 10.11941467 -8 10 C-9 9 -9 9 -9.3125 5.625 C-9 2 -9 2 -7.3125 0 C-4.39120636 -1.26326211 -2.98201353 -1.02016252 0 0 Z " fill="#FCFAF5" transform="translate(83,68)"/>
<path d="M0 0 C0.33 0 0.66 0 1 0 C1.00142502 0.67492493 1.00285004 1.34984985 1.00431824 2.04522705 C1.02412361 9.11942315 1.07862862 16.19276892 1.15258789 23.26660156 C1.17567379 25.90065392 1.19014131 28.53479736 1.19555664 31.16894531 C1.20491455 34.97257637 1.24605897 38.77479326 1.29296875 42.578125 C1.2890361 43.74112122 1.28510345 44.90411743 1.28105164 46.10235596 C1.42536165 54.33242896 3.34592823 60.63938045 7 68 C6.01 68.99 6.01 68.99 5 70 C4.36967867 68.79443396 3.7460503 67.58536811 3.125 66.375 C2.77695313 65.70210938 2.42890625 65.02921875 2.0703125 64.3359375 C-0.12194155 59.55138303 -1.25463546 55.45488744 -1.13525391 50.17822266 C-1.11508209 49.05751373 -1.09491028 47.93680481 -1.0741272 46.78213501 C-1.04193085 45.58817108 -1.0097345 44.39420715 -0.9765625 43.1640625 C-0.95153656 41.92957367 -0.92651062 40.69508484 -0.90072632 39.42318726 C-0.81872299 35.49017072 -0.72205553 31.55767105 -0.625 27.625 C-0.56555242 24.95446928 -0.50943777 22.28388143 -0.453125 19.61328125 C-0.31317319 13.07523617 -0.16118843 6.53755413 0 0 Z " fill="#F05311" transform="translate(7,184)"/>
<path d="M0 0 C0 3 0 3 -1.7578125 4.90234375 C-13.50287908 15 -13.50287908 15 -17 15 C-17 14.34 -17 13.68 -17 13 C-18.98 13 -20.96 13 -23 13 C-23 13.66 -23 14.32 -23 15 C-25.64 15 -28.28 15 -31 15 C-27.89532014 13.32655554 -24.80808581 12.27329369 -21.4375 11.25 C-13.62102487 8.69553383 -6.4926283 5.06485125 0 0 Z " fill="#FDDBC7" transform="translate(132,156)"/>
<path d="M0 0 C-0.99 0.495 -0.99 0.495 -2 1 C-2 1.66 -2 2.32 -2 3 C-2.763125 3.20625 -3.52625 3.4125 -4.3125 3.625 C-7.28817882 4.80136136 -7.28817882 4.80136136 -8.4375 8.0625 C-9.2109375 9.5165625 -9.2109375 9.5165625 -10 11 C-13.1875 11.875 -13.1875 11.875 -16 12 C-16 11.01 -16 10.02 -16 9 C-17.65 9.33 -19.3 9.66 -21 10 C-15.4627932 3.77064235 -8.49045708 -0.22947181 0 0 Z " fill="#DF581C" transform="translate(46,6)"/>
<path d="M0 0 C0.66 0.33 1.32 0.66 2 1 C1.01 1.33 0.02 1.66 -1 2 C-1.80212628 3.87387216 -1.80212628 3.87387216 -2.1875 6.0625 C-2.34605469 6.79597656 -2.50460938 7.52945313 -2.66796875 8.28515625 C-2.77753906 8.85105469 -2.88710937 9.41695312 -3 10 C-3.66 10 -4.32 10 -5 10 C-5.061875 10.763125 -5.12375 11.52625 -5.1875 12.3125 C-6.34487791 17.56521514 -8.67197995 22.1721503 -11 27 C-12.13583456 23.28272326 -11.66670026 21.52948291 -10 18 C-10.66 17.34 -11.32 16.68 -12 16 C-12.125 12.375 -12.125 12.375 -12 9 C-11.236875 9.061875 -10.47375 9.12375 -9.6875 9.1875 C-7.01991827 9.22758537 -7.01991827 9.22758537 -5.25 7.8125 C-3.71161002 5.58183452 -3.35994553 3.6635969 -3 1 C-2.01 0.67 -1.02 0.34 0 0 Z M-11 14 C-10 16 -10 16 -10 16 Z " fill="#F35B19" transform="translate(127,49)"/>
<path d="M0 0 C0.66 0 1.32 0 2 0 C2.02684679 2.64590014 2.04676357 5.29153096 2.0625 7.9375 C2.07087891 8.69224609 2.07925781 9.44699219 2.08789062 10.22460938 C2.09652441 12.14994313 2.05224333 14.07535581 2 16 C1.67 16.33 1.34 16.66 1 17 C1.10581456 21.39537386 1.45554816 25.66911772 3.125 29.75 C4.29978369 32.77087233 3.72140139 34.89797401 3 38 C-1.53696562 33.46303438 -2.18708677 24.9627783 -2.3125 18.75 C-2.17592805 14.26468973 -1.15306978 10.32401168 0 6 C0.1690389 2.66605561 0.1690389 2.66605561 0 0 Z " fill="#EB6B33" transform="translate(45,106)"/>
<path d="M0 0 C2.36860281 1.77645211 2.95500248 2.72358664 3.4375 5.6875 C2.86692478 10.00756949 1.13449327 13.24557881 -1 17 C-1.66 17 -2.32 17 -3 17 C-3.33 17.66 -3.66 18.32 -4 19 C-4.99 18.67 -5.98 18.34 -7 18 C-7 17.01 -7 16.02 -7 15 C-6.34 15 -5.68 15 -5 15 C-4.87625 14.443125 -4.7525 13.88625 -4.625 13.3125 C-3.93888824 10.7738865 -2.98649585 8.43722504 -2 6 C-1.32204472 4.00379834 -0.65266469 2.00461299 0 0 Z " fill="#FC4903" transform="translate(217,69)"/>
<path d="M0 0 C2.21736634 1.10868317 4.03617993 2.49440461 6 4 C2.23521087 5.53611235 -1.53767967 7.05122452 -5.3125 8.5625 C-6.9202832 9.21895508 -6.9202832 9.21895508 -8.56054688 9.88867188 C-10.10258789 10.50258789 -10.10258789 10.50258789 -11.67578125 11.12890625 C-12.62364502 11.51119385 -13.57150879 11.89348145 -14.5480957 12.28735352 C-17 13 -17 13 -20 12 C-19.05898437 11.46890625 -18.11796875 10.9378125 -17.1484375 10.390625 C-15.89055828 9.67720096 -14.63274953 8.96365265 -13.375 8.25 C-12.75753906 7.90195313 -12.14007813 7.55390625 -11.50390625 7.1953125 C-7.55173734 4.94881649 -3.75408212 2.56432686 0 0 Z " fill="#FEE1CC" transform="translate(131,202)"/>
<path d="M0 0 C0.4375 2.0625 0.4375 2.0625 0 5 C-1.98955846 7.79114869 -4.19995833 10.02152744 -7 12 C-10.4375 12.4375 -10.4375 12.4375 -13 12 C-10.47605697 6.44732533 -6.91356215 0 0 0 Z " fill="#EF5616" transform="translate(166,169)"/>
<path d="M0 0 C2.475 0.99 2.475 0.99 5 2 C5 2.66 5 3.32 5 4 C5.66 4 6.32 4 7 4 C7 4.66 7 5.32 7 6 C7.61875 5.505 8.2375 5.01 8.875 4.5 C11 3 11 3 13 3 C14.4606285 5.64738916 15 6.89448334 15 10 C16.670625 10.4021875 16.670625 10.4021875 18.375 10.8125 C22 12 22 12 24 15 C14.60768701 13.40507893 6.18741387 8.25420936 0 1 C0 0.67 0 0.34 0 0 Z " fill="#CD450D" transform="translate(20,263)"/>
<path d="M0 0 C0.66 0.33 1.32 0.66 2 1 C0.68 2.65 -0.64 4.3 -2 6 C-0.35 6.33 1.3 6.66 3 7 C3 6.34 3 5.68 3 5 C4.65 5 6.3 5 8 5 C2.90781903 9.27743201 -2.31847338 11.48889219 -9 11 C-9.33 10.34 -9.66 9.68 -10 9 C-6.83047153 5.73991357 -3.60062011 2.77762123 0 0 Z " fill="#FEEBDD" transform="translate(142,194)"/>
<path d="M0 0 C-6.95471472 3.06825649 -13.52517049 3.13295151 -21 3 C-20.96261719 3.73734375 -20.92523438 4.4746875 -20.88671875 5.234375 C-21.00448885 8.10958984 -21.51847835 9.71042193 -22.8125 12.25 C-23.14894531 12.93578125 -23.48539062 13.6215625 -23.83203125 14.328125 C-25 16 -25 16 -28 17 C-27.56856647 15.62308448 -27.12948836 14.24856381 -26.6875 12.875 C-26.44386719 12.10929688 -26.20023437 11.34359375 -25.94921875 10.5546875 C-25.63597656 9.71164063 -25.32273437 8.86859375 -25 8 C-24.63648437 6.93652344 -24.27296875 5.87304688 -23.8984375 4.77734375 C-22 2 -22 2 -18.27734375 1.01171875 C-16.83311978 0.8753713 -15.38590057 0.76818014 -13.9375 0.6875 C-1.18521078 -0.35556323 -1.18521078 -0.35556323 0 0 Z " fill="#FEE2CD" transform="translate(91,189)"/>
<path d="M0 0 C0.05399736 1.45792884 0.09279177 2.91642712 0.125 4.375 C0.14820312 5.18710938 0.17140625 5.99921875 0.1953125 6.8359375 C0 9 0 9 -2 11 C-4.3828125 11.4140625 -4.3828125 11.4140625 -7.125 11.625 C-8.03507812 11.69976562 -8.94515625 11.77453125 -9.8828125 11.8515625 C-10.93082031 11.92503906 -10.93082031 11.92503906 -12 12 C-14.29013653 8.5647952 -14.17842973 7.014669 -14 3 C-13.34 2.67 -12.68 2.34 -12 2 C-11.67 4.31 -11.34 6.62 -11 9 C-8.03 9 -5.06 9 -2 9 C-1.83322718 5.58343976 -1.83322718 5.58343976 -2 2 C-2.66 1.34 -3.32 0.68 -4 0 C-7.59679066 0.32326553 -7.59679066 0.32326553 -11 1 C-11 0.01 -11 -0.98 -11 -2 C-6.64337851 -3.61356351 -3.94913253 -1.97456626 0 0 Z " fill="#E96425" transform="translate(86,68)"/>
<path d="M0 0 C0.33 0 0.66 0 1 0 C1.49009922 9.96535085 -0.75906853 20.36787758 -6 29 C-6.99 29.33 -7.98 29.66 -9 30 C-7.41807475 24.30249687 -5.5685712 18.80596527 -3.375 13.3125 C-1.59799066 8.79793574 -0.33723389 4.8336858 0 0 Z " fill="#EB622F" transform="translate(218,55)"/>
<path d="M0 0 C0.33 0 0.66 0 1 0 C1.11771717 3.79139846 1.18775198 7.58231735 1.25 11.375 C1.30027344 12.96634766 1.30027344 12.96634766 1.3515625 14.58984375 C1.44490989 22.19765576 0.7568211 29.92356875 -4.63574219 35.77490234 C-5.08594727 36.17918457 -5.53615234 36.5834668 -6 37 C-6 35.35 -6 33.7 -6 32 C-5.34 32 -4.68 32 -4 32 C-4 30.68 -4 29.36 -4 28 C-3.34 28 -2.68 28 -2 28 C-2.020625 27.030625 -2.04125 26.06125 -2.0625 25.0625 C-2 22 -2 22 -1 21 C-0.84313751 19.44051458 -0.74923361 17.87457332 -0.68359375 16.30859375 C-0.64169922 15.36435547 -0.59980469 14.42011719 -0.55664062 13.44726562 C-0.49766602 11.95743164 -0.49766602 11.95743164 -0.4375 10.4375 C-0.39431641 9.44041016 -0.35113281 8.44332031 -0.30664062 7.41601562 C-0.20019702 4.9441585 -0.09818072 2.4721969 0 0 Z " fill="#DD4810" transform="translate(278,219)"/>
<path d="M0 0 C0.33 0 0.66 0 1 0 C0.07488987 6.60792952 0.07488987 6.60792952 -0.53125 9.78125 C-1.05192523 13.35655325 -1.09656987 16.76359411 -1.0625 20.375 C-1.05347656 21.62023437 -1.04445312 22.86546875 -1.03515625 24.1484375 C-1.02355469 25.08945313 -1.01195312 26.03046875 -1 27 C-1.66 26.67 -2.32 26.34 -3 26 C-3.39460023 23.67624308 -3.72230092 21.3406065 -4 19 C-4.18949219 18.35417969 -4.37898438 17.70835938 -4.57421875 17.04296875 C-5.7774814 11.26951587 -2.76934234 4.90928869 0 0 Z " fill="#FFE9D7" transform="translate(45,107)"/>
<path d="M0 0 C0.79942017 0.32049316 0.79942017 0.32049316 1.61499023 0.64746094 C7.58252291 2.86115015 12.73271617 3.40497558 19.0625 3.25 C20.3319043 3.24226562 20.3319043 3.24226562 21.62695312 3.234375 C26.82402027 3.17026315 31.85606425 2.73739657 37 2 C36.34 2.33 35.68 2.66 35 3 C35 3.66 35 4.32 35 5 C30.80079763 5.04953687 26.60175131 5.08578411 22.40234375 5.10986328 C20.97457922 5.11990427 19.54683517 5.13353981 18.11914062 5.15087891 C16.06375059 5.17521152 14.00863308 5.18650202 11.953125 5.1953125 C10.09929199 5.21102295 10.09929199 5.21102295 8.20800781 5.22705078 C5.15732473 5.01113486 3.46154726 4.77712785 1 3 C0.67 2.01 0.34 1.02 0 0 Z " fill="#EE7740" transform="translate(64,176)"/>
<path d="M0 0 C0 1.32 0 2.64 0 4 C-0.66 4 -1.32 4 -2 4 C-2.309375 4.94875 -2.61875 5.8975 -2.9375 6.875 C-4 10 -4 10 -5 12 C-5.66 12 -6.32 12 -7 12 C-7.33 13.32 -7.66 14.64 -8 16 C-8.99 16 -9.98 16 -11 16 C-10.34206835 14.32986582 -9.67276716 12.6642135 -9 11 C-8.54625 9.824375 -8.0925 8.64875 -7.625 7.4375 C-4.10909091 0 -4.10909091 0 0 0 Z " fill="#F45D1C" transform="translate(25,16)"/>
<path d="M0 0 C2.64 0 5.28 0 8 0 C8 1.98 8 3.96 8 6 C2.25 7.125 2.25 7.125 0 6 C0 4.02 0 2.04 0 0 Z " fill="#ED652D" transform="translate(49,94)"/>
<path d="M0 0 C-9.4404594 5.01320947 -19.53564498 5.59046384 -30 6 C-30 5.34 -30 4.68 -30 4 C-29.23816406 3.96261719 -28.47632812 3.92523438 -27.69140625 3.88671875 C-21.74712348 3.50824382 -16.74016895 2.73072308 -11.1796875 0.6328125 C-7.43174504 -0.45529983 -3.87544035 -0.18454478 0 0 Z " fill="#EC6C36" transform="translate(100,185)"/>
<path d="M0 0 C0.61875 0.268125 1.2375 0.53625 1.875 0.8125 C2.90625 1.204375 3.9375 1.59625 5 2 C5.62390625 2.25265625 6.2478125 2.5053125 6.890625 2.765625 C15.6285975 5.88196484 24.82462766 5.7268113 34 6 C34 6.33 34 6.66 34 7 C30.68757688 7.0588996 27.37529149 7.09389398 24.0625 7.125 C22.67321289 7.15013672 22.67321289 7.15013672 21.25585938 7.17578125 C14.10119534 7.22598942 7.78171414 6.26057138 1 4 C0.3125 1.9375 0.3125 1.9375 0 0 Z " fill="#FFDFCA" transform="translate(65,165)"/>
<path d="M0 0 C-6.39522364 4.63422003 -13.81715145 10 -22 10 C-22 9.34 -22 8.68 -22 8 C-19.36 7.01 -16.72 6.02 -14 5 C-14 4.67 -14 4.34 -14 4 C-11.36 3.67 -8.72 3.34 -6 3 C-6.33 2.01 -6.66 1.02 -7 0 C-3.98968256 -0.93423645 -3.13349732 -1.04449911 0 0 Z " fill="#AD3C11" transform="translate(261,269)"/>
<path d="M0 0 C0.99 0.495 0.99 0.495 2 1 C2.4921875 2.71484375 2.4921875 2.71484375 2.875 4.9375 C3.93313735 10.24525349 5.86774739 15.04199515 8 20 C7.34 20.66 6.68 21.32 6 22 C2.07082525 14.48497645 -0.29551757 8.57000965 0 0 Z " fill="#993611" transform="translate(6,232)"/>
<path d="M0 0 C1.32 0.33 2.64 0.66 4 1 C1.73272667 2.17407021 -0.53834624 3.33939739 -2.8125 4.5 C-3.45509766 4.83386719 -4.09769531 5.16773438 -4.75976562 5.51171875 C-7.69547699 7.00239084 -9.66126517 8 -13 8 C-12.67012361 5.52592708 -12.42027913 4.3362233 -10.4375 2.75 C-6.89085382 1.65872425 -3.70471601 1.87650947 0 2 C0 1.34 0 0.68 0 0 Z " fill="#F05615" transform="translate(124,159)"/>
<path d="M0 0 C0.66 0.66 1.32 1.32 2 2 C1.625 5.625 1.625 5.625 1 9 C0.01 9.33 -0.98 9.66 -2 10 C-2 9.01 -2 8.02 -2 7 C-1.34 7 -0.68 7 0 7 C-0.66 5.02 -1.32 3.04 -2 1 C-3.65 1.66 -5.3 2.32 -7 3 C-7 5.31 -7 7.62 -7 10 C-7.66 9.67 -8.32 9.34 -9 9 C-9.48492623 2.57472739 -9.48492623 2.57472739 -7.3125 0 C-4.39120636 -1.26326211 -2.98201353 -1.02016252 0 0 Z " fill="#FDD3B9" transform="translate(83,68)"/>
<path d="M0 0 C0 0.66 0 1.32 0 2 C-0.99 2 -1.98 2 -3 2 C-3 2.66 -3 3.32 -3 4 C-4.63260714 5.37482707 -6.30225062 6.70647667 -8 8 C-8.66 8.66 -9.32 9.32 -10 10 C-12.31 9.34 -14.62 8.68 -17 8 C-14.44006232 5.44006232 -11.78961812 4.38152865 -8.5 2.875 C-7.3346875 2.33617187 -6.169375 1.79734375 -4.96875 1.2421875 C-2 0 -2 0 0 0 Z " fill="#F15E27" transform="translate(156,197)"/>
<path d="M0 0 C5.06998019 0.65419099 9.41990777 2.8546409 14 5 C14 5.66 14 6.32 14 7 C14.78375 7.268125 15.5675 7.53625 16.375 7.8125 C19 9 19 9 21 12 C20.01 12.495 20.01 12.495 19 13 C18.67 12.34 18.34 11.68 18 11 C17.01 10.67 16.02 10.34 15 10 C15 9.34 15 8.68 15 8 C14.39671875 7.80664062 13.7934375 7.61328125 13.171875 7.4140625 C12.37265625 7.15367188 11.5734375 6.89328125 10.75 6.625 C9.96109375 6.36976562 9.1721875 6.11453125 8.359375 5.8515625 C6.13372042 5.04826333 4.09068328 4.10288338 2 3 C2 2.34 2 1.68 2 1 C1.34 0.67 0.68 0.34 0 0 Z " fill="#A33413" transform="translate(243,6)"/>
<path d="M0 0 C-0.36793618 2.66753731 -0.81998328 3.81998328 -2.75 5.75 C-5.37943983 7.21079991 -7.0374441 7.24687966 -10 7 C-9.3125 4.625 -9.3125 4.625 -8 2 C-5.08543662 0.43061972 -3.32058331 0 0 0 Z " fill="#F25314" transform="translate(147,188)"/>
<path d="M0 0 C0.66 0 1.32 0 2 0 C1.72285156 1.07636719 1.44570313 2.15273437 1.16015625 3.26171875 C-1.08502906 12.22701146 -2.67764909 20.73241127 -3 30 C-3.33 30 -3.66 30 -4 30 C-4 23.4 -4 16.8 -4 10 C-3.34 10 -2.68 10 -2 10 C-1.855625 8.906875 -1.71125 7.81375 -1.5625 6.6875 C-1 3 -1 3 0 0 Z " fill="#E86A37" transform="translate(42,109)"/>
<path d="M0 0 C0.33 0 0.66 0 1 0 C1.125 2.875 1.125 2.875 1 6 C0.34 6.66 -0.32 7.32 -1 8 C-1.71393928 9.62588515 -2.37516288 11.27533563 -3 12.9375 C-4.14475798 15.97379167 -5.18457103 18.27685655 -7 21 C-7.66 21 -8.32 21 -9 21 C-7.72556367 16.75187889 -6.03885214 12.96035303 -4.01953125 9.03515625 C-2.5383976 6.0785638 -1.27161336 3.05187206 0 0 Z " fill="#FEDCC4" transform="translate(210,102)"/>
<path d="M0 0 C2.625 0.375 2.625 0.375 5 1 C5 2.65 5 4.3 5 6 C3.02 6.33 1.04 6.66 -1 7 C-1.625 4.625 -1.625 4.625 -2 2 C-1.34 1.34 -0.68 0.68 0 0 Z " fill="#FDE0CC" transform="translate(61,82)"/>
<path d="M0 0 C2.35854352 4.71708704 3.11487898 6.47266255 2.87890625 11.6640625 C2.83056641 12.78554688 2.78222656 13.90703125 2.73242188 15.0625 C2.67634766 16.238125 2.62027344 17.41375 2.5625 18.625 C2.51029297 19.80835937 2.45808594 20.99171875 2.40429688 22.2109375 C2.27433994 25.14087561 2.13936472 28.07049673 2 31 C1.67 31 1.34 31 1 31 C0.67 20.77 0.34 10.54 0 0 Z " fill="#C33D0F" transform="translate(277,37)"/>
<path d="M0 0 C-0.33 1.98 -0.66 3.96 -1 6 C-1.56847656 5.98839844 -2.13695312 5.97679687 -2.72265625 5.96484375 C-7.60670484 5.90776806 -12.18503965 6.18043228 -17 7 C-14.03171001 5.02114001 -11.22552946 3.74135003 -7.9375 2.375 C-6.87402344 1.92898437 -5.81054688 1.48296875 -4.71484375 1.0234375 C-2 0 -2 0 0 0 Z " fill="#EC5C21" transform="translate(131,208)"/>
<path d="M0 0 C0.33 0 0.66 0 1 0 C1 1.98 1 3.96 1 6 C0.34 6 -0.32 6 -1 6 C-1 6.66 -1 7.32 -1 8 C-1.66 8 -2.32 8 -3 8 C-3.33 10.31 -3.66 12.62 -4 15 C-5.98 15.33 -7.96 15.66 -10 16 C-9.61328125 15.43152344 -9.2265625 14.86304688 -8.828125 14.27734375 C-5.68169447 9.61221532 -2.72381035 4.92381101 0 0 Z " fill="#EE5B23" transform="translate(179,145)"/>
<path d="M0 0 C0.66 0 1.32 0 2 0 C2.5775 1.11375 3.155 2.2275 3.75 3.375 C5.50870422 6.48225126 6.73706404 7.52641602 10 9 C13 13.28571429 13 13.28571429 13 16 C9.22270031 14.48908012 7.31320028 12.28723638 4.8125 9.125 C4.11769531 8.26132813 3.42289063 7.39765625 2.70703125 6.5078125 C1.14755766 4.21677807 0.4210177 2.70205392 0 0 Z " fill="#EB6930" transform="translate(48,145)"/>
<path d="M0 0 C0.33 0.66 0.66 1.32 1 2 C0.67 2.99 0.34 3.98 0 5 C-0.66 5 -1.32 5 -2 5 C-2.33 6.32 -2.66 7.64 -3 9 C-4.98 9 -6.96 9 -9 9 C-7.48328036 4.44984107 -3.83108947 2.49942736 0 0 Z " fill="#F75209" transform="translate(130,162)"/>
<path d="M0 0 C0.33 0 0.66 0 1 0 C1 1.65 1 3.3 1 5 C0.01 5.33 -0.98 5.66 -2 6 C-2.35412344 7.32796291 -2.68521554 8.66216607 -3 10 C-4.375 11.75 -4.375 11.75 -6 13 C-6.99 13 -7.98 13 -9 13 C-7.51222697 9.74035658 -5.64333184 7.06830707 -3.4375 4.25 C-2.81746094 3.45078125 -2.19742188 2.6515625 -1.55859375 1.828125 C-0.78708984 0.92320312 -0.78708984 0.92320312 0 0 Z " fill="#FEE3CF" transform="translate(145,150)"/>
<path d="M0 0 C1.32 0 2.64 0 4 0 C4 1.32 4 2.64 4 4 C3.01 4.495 3.01 4.495 2 5 C1.59270772 7.32156597 1.25561323 9.6568787 1 12 C0.01 11.67 -0.98 11.34 -2 11 C-1.125 3.375 -1.125 3.375 0 0 Z " fill="#FB5510" transform="translate(71,66)"/>
<path d="M0 0 C-0.33 1.98 -0.66 3.96 -1 6 C-1.66 6 -2.32 6 -3 6 C-3 6.99 -3 7.98 -3 9 C-3.66 9 -4.32 9 -5 9 C-5.33 9.66 -5.66 10.32 -6 11 C-6.33 9.02 -6.66 7.04 -7 5 C-6.34 5 -5.68 5 -5 5 C-5 4.34 -5 3.68 -5 3 C-2.46153846 0 -2.46153846 0 0 0 Z " fill="#FA4A05" transform="translate(193,131)"/>
<path d="M0 0 C-1.98 1.65 -3.96 3.3 -6 5 C-6.66 4.67 -7.32 4.34 -8 4 C-9.70363822 3.77377919 -11.41328701 3.59111527 -13.125 3.4375 C-14.03507812 3.35371094 -14.94515625 3.26992187 -15.8828125 3.18359375 C-16.58148438 3.12300781 -17.28015625 3.06242188 -18 3 C-18 2.67 -18 2.34 -18 2 C-17.15695313 1.86722656 -16.31390625 1.73445312 -15.4453125 1.59765625 C-14.34960938 1.42105469 -13.25390625 1.24445313 -12.125 1.0625 C-10.48917969 0.80146484 -10.48917969 0.80146484 -8.8203125 0.53515625 C-2.32466063 -0.69739819 -2.32466063 -0.69739819 0 0 Z " fill="#EA5B20" transform="translate(75,224)"/>
<path d="M0 0 C0.66 0.33 1.32 0.66 2 1 C0.9015258 2.46262592 -0.2040036 3.91995503 -1.3125 5.375 C-1.92738281 6.18710938 -2.54226562 6.99921875 -3.17578125 7.8359375 C-5 10 -5 10 -8 12 C-7.58682778 7.17965738 -5.61980085 5.09007389 -2 2 C-1.34 2 -0.68 2 0 2 C0 1.34 0 0.68 0 0 Z " fill="#FEE4D3" transform="translate(166,161)"/>
<path d="M0 0 C-0.3125 2.375 -0.3125 2.375 -1 5 C-4.22791555 7.1519437 -5.28400809 7.20086443 -9 7 C-8.67 6.01 -8.34 5.02 -8 4 C-7.34 4 -6.68 4 -6 4 C-6 3.34 -6 2.68 -6 2 C-2.25 0 -2.25 0 0 0 Z " fill="#F1530D" transform="translate(129,200)"/>
<path d="M0 0 C1 3 1 3 0.375 5.125 C-1 7 -1 7 -3.625 7.75 C-4.800625 7.87375 -4.800625 7.87375 -6 8 C-5.8125 5.125 -5.8125 5.125 -5 2 C-2.4375 0.625 -2.4375 0.625 0 0 Z " fill="#F75E1C" transform="translate(30,14)"/>
<path d="M0 0 C-0.99 0.495 -0.99 0.495 -2 1 C-2 1.66 -2 2.32 -2 3 C-6.17737474 4.59138085 -9.53160785 5.21278058 -14 5 C-12.49587218 1.99174436 -10.13951699 1.69337029 -7.078125 0.59765625 C-4.64864679 -0.10104707 -2.51431136 -0.23571669 0 0 Z " fill="#B94D1F" transform="translate(46,6)"/>
<path d="M0 0 C0.66 0.33 1.32 0.66 2 1 C2 1.99 2 2.98 2 4 C0.23358317 4.6987693 -1.53832664 5.38366583 -3.3125 6.0625 C-4.79169922 6.63677734 -4.79169922 6.63677734 -6.30078125 7.22265625 C-9 8 -9 8 -12 7 C-10.04754815 5.80285445 -8.08785003 4.61751926 -6.125 3.4375 C-5.03445312 2.77621094 -3.94390625 2.11492187 -2.8203125 1.43359375 C-1.88960937 0.96050781 -0.95890625 0.48742187 0 0 Z " fill="#FEC9A6" transform="translate(123,207)"/>
<path d="M0 0 C0 3 0 3 -1.75 4.82421875 C-2.4925 5.43910156 -3.235 6.05398437 -4 6.6875 C-4.7425 7.31011719 -5.485 7.93273437 -6.25 8.57421875 C-6.8275 9.04472656 -7.405 9.51523438 -8 10 C-8.33 9.34 -8.66 8.68 -9 8 C-9.66 7.67 -10.32 7.34 -11 7 C-7.37 4.69 -3.74 2.38 0 0 Z " fill="#FEC8AA" transform="translate(132,156)"/>
<path d="M0 0 C1.28573642 3.85720926 0.41793292 4.84502377 -1.3125 8.4375 C-1.76238281 9.38496094 -2.21226562 10.33242187 -2.67578125 11.30859375 C-3.77529321 13.54329505 -4.88619423 15.77238847 -6 18 C-5.67 14.7 -5.34 11.4 -5 8 C-4.34 8 -3.68 8 -3 8 C-2.690625 6.865625 -2.38125 5.73125 -2.0625 4.5625 C-1 1 -1 1 0 0 Z " fill="#E65A22" transform="translate(219,78)"/>
<path d="M0 0 C2.64 0 5.28 0 8 0 C8.33 0.99 8.66 1.98 9 3 C9.66 3.33 10.32 3.66 11 4 C10.34 4 9.68 4 9 4 C9 4.99 9 5.98 9 7 C8.34 7 7.68 7 7 7 C6.67 5.35 6.34 3.7 6 2 C3.55519921 2.18828772 3.55519921 2.18828772 1 3 C-0.36020151 4.96758273 -0.36020151 4.96758273 -1 7 C-0.67 4.69 -0.34 2.38 0 0 Z " fill="#EB6026" transform="translate(59,81)"/>
<path d="M0 0 C0.66 0.33 1.32 0.66 2 1 C1.01 1.33 0.02 1.66 -1 2 C-1.80212628 3.87387216 -1.80212628 3.87387216 -2.1875 6.0625 C-2.34605469 6.79597656 -2.50460938 7.52945313 -2.66796875 8.28515625 C-2.77753906 8.85105469 -2.88710937 9.41695312 -3 10 C-3.66 10 -4.32 10 -5 10 C-5.33 11.98 -5.66 13.96 -6 16 C-6.33 16 -6.66 16 -7 16 C-6.25 8.25 -6.25 8.25 -4 6 C-3.35232207 3.42938689 -3.35232207 3.42938689 -3 1 C-2.01 0.67 -1.02 0.34 0 0 Z " fill="#EA6C35" transform="translate(127,49)"/>
<path d="M0 0 C1.32 0.66 2.64 1.32 4 2 C2.88200014 3.33920838 1.75538103 4.67122556 0.625 6 C-0.00148438 6.7425 -0.62796875 7.485 -1.2734375 8.25 C-1.84320313 8.8275 -2.41296875 9.405 -3 10 C-3.66 10 -4.32 10 -5 10 C-4.67 8.35 -4.34 6.7 -4 5 C-3.01 5.33 -2.02 5.66 -1 6 C-0.67 4.02 -0.34 2.04 0 0 Z " fill="#B23E10" transform="translate(266,258)"/>
<path d="M0 0 C0.66 0.33 1.32 0.66 2 1 C0.73046875 2.46484375 -0.5390625 3.9296875 -1.80859375 5.39453125 C-3.20871231 7.10712971 -3.20871231 7.10712971 -4 10 C-5.98 10 -7.96 10 -10 10 C-8.33333333 8.33333333 -6.66666667 6.66666667 -5 5 C-4.1646875 4.1028125 -4.1646875 4.1028125 -3.3125 3.1875 C-2 2 -2 2 0 2 C0 1.34 0 0.68 0 0 Z " fill="#FEE1CE" transform="translate(154,184)"/>
<path d="M0 0 C0 0.66 0 1.32 0 2 C-0.66 2 -1.32 2 -2 2 C-2 2.99 -2 3.98 -2 5 C-2.99 5 -3.98 5 -5 5 C-5 5.99 -5 6.98 -5 8 C-5.99 7.67 -6.98 7.34 -8 7 C-7.8125 5.1875 -7.8125 5.1875 -7 3 C-2.82142857 0 -2.82142857 0 0 0 Z " fill="#F64E0B" transform="translate(166,169)"/>
<path d="M0 0 C0.226875 0.639375 0.45375 1.27875 0.6875 1.9375 C1.85250896 4.27193661 1.85250896 4.27193661 4.625 4.75 C5.40875 4.8325 6.1925 4.915 7 5 C7 5.66 7 6.32 7 7 C8.65 7.33 10.3 7.66 12 8 C9.31485266 9.03274898 8.2078412 9.07566569 5.45703125 8.07421875 C4.58433594 7.61660156 3.71164063 7.15898437 2.8125 6.6875 C1.93207031 6.23761719 1.05164062 5.78773438 0.14453125 5.32421875 C-2 4 -2 4 -3 2 C-2.01 1.34 -1.02 0.68 0 0 Z " fill="#FEDFCC" transform="translate(61,170)"/>
<path d="M0 0 C0.33 0 0.66 0 1 0 C1.12117188 0.64066406 1.24234375 1.28132812 1.3671875 1.94140625 C2.35679227 7.04928933 3.48510951 12.02250269 5 17 C3.0625 16.4375 3.0625 16.4375 1 15 C-0.19402958 10.02487676 -0.08921917 5.08549246 0 0 Z " fill="#EB6C3F" transform="translate(39,139)"/>
<path d="M0 0 C1.73546076 2.60319113 2.65175233 4.52267237 3.625 7.4375 C3.88539063 8.19933594 4.14578125 8.96117188 4.4140625 9.74609375 C5 12 5 12 5 16 C4.34 16 3.68 16 3 16 C3 14.35 3 12.7 3 11 C2.34 11 1.68 11 1 11 C0.67 7.37 0.34 3.74 0 0 Z " fill="#FEDCC9" transform="translate(241,76)"/>
<path d="M0 0 C0.33 0.66 0.66 1.32 1 2 C0.34 2 -0.32 2 -1 2 C-1 2.66 -1 3.32 -1 4 C-0.34 4.66 0.32 5.32 1 6 C-0.98 6.99 -0.98 6.99 -3 8 C-3 7.01 -3 6.02 -3 5 C-4.98 5.33 -6.96 5.66 -9 6 C-6.11964908 3.75972706 -3.15133488 1.83827868 0 0 Z " fill="#EC652E" transform="translate(122,202)"/>
<path d="M0 0 C0.33 0.66 0.66 1.32 1 2 C0.29296875 3.91015625 0.29296875 3.91015625 -0.8125 6.0625 C-1.16957031 6.77535156 -1.52664062 7.48820313 -1.89453125 8.22265625 C-3 10 -3 10 -5 11 C-5.66 10.67 -6.32 10.34 -7 10 C-5.33248852 6.05860922 -2.77289351 3.2107188 0 0 Z " fill="#EF5D29" transform="translate(250,123)"/>
<path d="M0 0 C0.33 0 0.66 0 1 0 C1.33 2.31 1.66 4.62 2 7 C4.64 7 7.28 7 10 7 C10 7.66 10 8.32 10 9 C5.545 9.495 5.545 9.495 1 10 C-1.29404844 6.55892734 -1.26293056 5.03160191 -1 1 C-0.67 0.67 -0.34 0.34 0 0 Z " fill="#EB6C39" transform="translate(73,70)"/>
<path d="M0 0 C6 2 6 2 7 4 C5.35 3.67 3.7 3.34 2 3 C2 6.63 2 10.26 2 14 C1.01 14.495 1.01 14.495 0 15 C0 10.05 0 5.1 0 0 Z " fill="#F9C6AE" transform="translate(226,51)"/>
<path d="M0 0 C0.33 0 0.66 0 1 0 C0.39174965 4.34464536 -0.26167392 8.67551867 -1 13 C-1.99 12.34 -2.98 11.68 -4 11 C-3.5247412 9.35303396 -3.04468109 7.70745272 -2.5625 6.0625 C-2.29566406 5.14597656 -2.02882812 4.22945313 -1.75390625 3.28515625 C-1 1 -1 1 0 0 Z " fill="#FECAA6" transform="translate(45,107)"/>
<path d="M0 0 C0.66 0.33 1.32 0.66 2 1 C1.25 7.625 1.25 7.625 -1 11 C-1.66 11 -2.32 11 -3 11 C-3 10.01 -3 9.02 -3 8 C-2.34 8 -1.68 8 -1 8 C-0.67 5.36 -0.34 2.72 0 0 Z " fill="#FEE1CF" transform="translate(109,58)"/>
<path d="M0 0 C0.33 0.66 0.66 1.32 1 2 C1.66 2.33 2.32 2.66 3 3 C1.8141763 6.37503669 0.72426311 8.64722731 -2 11 C-2.28571429 3.57142857 -2.28571429 3.57142857 0 0 Z " fill="#F35D1D" transform="translate(10,38)"/>
<path d="M0 0 C1.0169313 2.65498232 1.13022151 3.69155375 0.00390625 6.359375 C-0.47175781 7.14828125 -0.94742187 7.9371875 -1.4375 8.75 C-2.14712891 9.94882813 -2.14712891 9.94882813 -2.87109375 11.171875 C-3.24363281 11.77515625 -3.61617188 12.3784375 -4 13 C-4.33 13 -4.66 13 -5 13 C-5 11.35 -5 9.7 -5 8 C-4.34 8 -3.68 8 -3 8 C-3 6.68 -3 5.36 -3 4 C-2.34 3.67 -1.68 3.34 -1 3 C-0.67 2.01 -0.34 1.02 0 0 Z " fill="#99300D" transform="translate(277,243)"/>
<path d="M0 0 C-2.38957269 3.24299151 -4.2047869 5.50902342 -8 7 C-8 3 -8 3 -6.8125 1.25 C-4.44116664 -0.38540232 -2.81923877 -0.22858693 0 0 Z " fill="#FEE7D3" transform="translate(152,179)"/>
<path d="M0 0 C0.33 0 0.66 0 1 0 C1.68041782 5.27323808 -0.75213663 9.39388711 -3 14 C-3.66 14 -4.32 14 -5 14 C-3.45730076 9.27934033 -1.92205381 4.58335908 0 0 Z " fill="#FEDBC8" transform="translate(119,67)"/>
<path d="M0 0 C0 1.32 0 2.64 0 4 C-0.66 4 -1.32 4 -2 4 C-2 4.66 -2 5.32 -2 6 C-3.65 6.33 -5.3 6.66 -7 7 C-3.86206897 0 -3.86206897 0 0 0 Z " fill="#AA471B" transform="translate(25,16)"/>
<path d="M0 0 C0.99 0.33 1.98 0.66 3 1 C-0.3 3.31 -3.6 5.62 -7 8 C-7.66 7.34 -8.32 6.68 -9 6 C-8.01 6 -7.02 6 -6 6 C-6 5.34 -6 4.68 -6 4 C-3.1875 1.8125 -3.1875 1.8125 0 0 Z " fill="#FEE8D6" transform="translate(198,169)"/>
<path d="M0 0 C2.64752004 2.57784846 4.94432065 4.91648098 7 8 C4.69 7.67 2.38 7.34 0 7 C0.33 6.01 0.66 5.02 1 4 C0.61067144 1.85744207 0.61067144 1.85744207 0 0 Z " fill="#EE602A" transform="translate(46,161)"/>
<path d="M0 0 C0.99 0.33 1.98 0.66 3 1 C2.01 1.495 2.01 1.495 1 2 C1 2.66 1 3.32 1 4 C0.34 4 -0.32 4 -1 4 C-0.67 5.32 -0.34 6.64 0 8 C-1.32 7.67 -2.64 7.34 -4 7 C-3.6875 4.625 -3.6875 4.625 -3 2 C-2.01 1.34 -1.02 0.68 0 0 Z " fill="#F64909" transform="translate(172,159)"/>
<path d="M0 0 C1.19594292 3.99221233 0.68790338 6.14193513 -1 10 C-3.125 12.375 -3.125 12.375 -5 14 C-3.46527032 9.27775484 -1.76054874 4.64144669 0 0 Z " fill="#E96737" transform="translate(208,85)"/>
<path d="M0 0 C0.99 0.33 1.98 0.66 3 1 C3 1.66 3 2.32 3 3 C3.99 3 4.98 3 6 3 C6.33 4.98 6.66 6.96 7 9 C4.03595495 6.19195732 1.55500981 3.81684226 0 0 Z " fill="#C14115" transform="translate(13,254)"/>
<path d="M0 0 C2.09782787 2.09782787 2.6509396 3.3799207 3.625 6.125 C4.01558594 7.21167969 4.01558594 7.21167969 4.4140625 8.3203125 C4.70410156 9.15175781 4.70410156 9.15175781 5 10 C4.34 10.66 3.68 11.32 3 12 C0.58314288 7.77050005 -0.34833144 4.87664009 0 0 Z " fill="#BA3F13" transform="translate(9,242)"/>
<path d="M0 0 C1.41791408 0.45445964 2.83428046 0.91374944 4.25 1.375 C5.43335937 1.75785156 5.43335937 1.75785156 6.640625 2.1484375 C8.86627958 2.95173667 10.90931672 3.89711662 13 5 C4.02521008 5.29915966 4.02521008 5.29915966 1 3 C0.67 2.01 0.34 1.02 0 0 Z " fill="#EA642C" transform="translate(64,176)"/>
<path d="M0 0 C1.32 0 2.64 0 4 0 C4 1.65 4 3.3 4 5 C2.35 4.67 0.7 4.34 -1 4 C-0.67 2.68 -0.34 1.36 0 0 Z " fill="#FEDAC2" transform="translate(51,96)"/>
<path d="M0 0 C0.33 0.66 0.66 1.32 1 2 C-0.125 5 -0.125 5 -2 8 C-4.6171875 9.1875 -4.6171875 9.1875 -7 10 C-6.02223933 8.51990357 -5.0427506 7.04094856 -4.0625 5.5625 C-3.51722656 4.73878906 -2.97195312 3.91507813 -2.41015625 3.06640625 C-1 1 -1 1 0 0 Z " fill="#E75E2A" transform="translate(168,161)"/>
<path d="M0 0 C0.66 0 1.32 0 2 0 C2.33 1.32 2.66 2.64 3 4 C2.01 4 1.02 4 0 4 C0 4.99 0 5.98 0 7 C-1.32 7 -2.64 7 -4 7 C-4 6.34 -4 5.68 -4 5 C-3.34 5 -2.68 5 -2 5 C-2 4.34 -2 3.68 -2 3 C-1.34 3 -0.68 3 0 3 C0 2.01 0 1.02 0 0 Z " fill="#FB4C06" transform="translate(180,148)"/>
<path d="M0 0 C0.66 0.33 1.32 0.66 2 1 C0.68 4.3 -0.64 7.6 -2 11 C-2.33 11 -2.66 11 -3 11 C-3 8.69 -3 6.38 -3 4 C-2.34 4 -1.68 4 -1 4 C-0.67 2.68 -0.34 1.36 0 0 Z " fill="#E95D28" transform="translate(67,191)"/>
<path d="M0 0 C2.64 1.65 5.28 3.3 8 5 C4.29847322 5.92538169 3.36541838 6.08174162 0 5 C0 3.35 0 1.7 0 0 Z " fill="#EE5C25" transform="translate(53,169)"/>
<path d="M0 0 C0.33 0 0.66 0 1 0 C1 2.97 1 5.94 1 9 C-0.32 9.33 -1.64 9.66 -3 10 C-2.01 6.7 -1.02 3.4 0 0 Z " fill="#FDE2CE" transform="translate(167,100)"/>
<path d="M0 0 C0.99 0.33 1.98 0.66 3 1 C3.0270043 2.45823212 3.04639787 3.91660675 3.0625 5.375 C3.07410156 6.18710937 3.08570312 6.99921875 3.09765625 7.8359375 C3 10 3 10 2 12 C1.01 11.67 0.02 11.34 -1 11 C-0.67 10.443125 -0.34 9.88625 0 9.3125 C1.14560151 6.6632965 1.22572784 4.8592193 1 2 C0.67 1.34 0.34 0.68 0 0 Z " fill="#EC672E" transform="translate(109,57)"/>
<path d="M0 0 C2.475 0.99 2.475 0.99 5 2 C5 2.66 5 3.32 5 4 C5.66 4 6.32 4 7 4 C7 4.66 7 5.32 7 6 C7.66 6 8.32 6 9 6 C8.67 6.66 8.34 7.32 8 8 C6.84772177 7.23883449 5.7033614 6.46567307 4.5625 5.6875 C3.92441406 5.25824219 3.28632813 4.82898438 2.62890625 4.38671875 C1 3 1 3 0 0 Z " fill="#A73A15" transform="translate(20,263)"/>
<path d="M0 0 C0.66 0.33 1.32 0.66 2 1 C1.34 1.66 0.68 2.32 0 3 C-0.6425235 5.06874034 -0.6425235 5.06874034 -1 7 C-2.65 6.67 -4.3 6.34 -6 6 C-4 4 -2 2 0 0 Z " fill="#EE612A" transform="translate(202,168)"/>
<path d="M0 0 C0.66 0.33 1.32 0.66 2 1 C-0.475 5.455 -0.475 5.455 -3 10 C-3.33 10 -3.66 10 -4 10 C-4 8.35 -4 6.7 -4 5 C-3.34 5 -2.68 5 -2 5 C-2 4.01 -2 3.02 -2 2 C-1.34 2 -0.68 2 0 2 C0 1.34 0 0.68 0 0 Z " fill="#EA5E22" transform="translate(192,135)"/>
<path d="M0 0 C1.98 0 3.96 0 6 0 C6 0.99 6 1.98 6 3 C3.36 3.33 0.72 3.66 -2 4 C-1.34 2.68 -0.68 1.36 0 0 Z " fill="#F45A1E" transform="translate(50,100)"/>
<path d="M0 0 C3.3 0.33 6.6 0.66 10 1 C9.67 1.66 9.34 2.32 9 3 C6.36 3 3.72 3 1 3 C0.67 2.01 0.34 1.02 0 0 Z " fill="#FEDEC6" transform="translate(96,68)"/>
<path d="M0 0 C0.33 0 0.66 0 1 0 C1.3125 2.25 1.3125 2.25 1 5 C-1.5 7.3125 -1.5 7.3125 -4 9 C-4 7.35 -4 5.7 -4 4 C-3.01 3.67 -2.02 3.34 -1 3 C-0.67 2.01 -0.34 1.02 0 0 Z " fill="#FB5411" transform="translate(123,50)"/>
<path d="M0 0 C-1 3 -1 3 -3.3125 4.25 C-6.16597407 5.04631835 -7.24802325 4.8214856 -10 4 C-8.71086513 3.32845067 -7.41859796 2.66291141 -6.125 2 C-5.40570313 1.62875 -4.68640625 1.2575 -3.9453125 0.875 C-2 0 -2 0 0 0 Z " fill="#FED8C0" transform="translate(117,178)"/>
<path d="M0 0 C0.33 0.99 0.66 1.98 1 3 C-1.97 5.475 -1.97 5.475 -5 8 C-5.66 7.67 -6.32 7.34 -7 7 C-4.69 4.69 -2.38 2.38 0 0 Z " fill="#FFDECD" transform="translate(167,172)"/>
<path d="M0 0 C0.33 0 0.66 0 1 0 C1 1.98 1 3.96 1 6 C0.34 6 -0.32 6 -1 6 C-1 6.66 -1 7.32 -1 8 C-2.32 8.33 -3.64 8.66 -5 9 C-3.35 6.03 -1.7 3.06 0 0 Z " fill="#EF6933" transform="translate(179,145)"/>
<path d="M0 0 C2.63526912 5.17333569 2.63526912 5.17333569 3 8 C2.34 8.99 1.68 9.98 1 11 C-0.20272819 8.59454362 -0.10071472 7.05003047 -0.0625 4.375 C-0.05347656 3.55773437 -0.04445312 2.74046875 -0.03515625 1.8984375 C-0.02355469 1.27195313 -0.01195312 0.64546875 0 0 Z " fill="#F25917" transform="translate(46,133)"/>
<path d="M0 0 C0.66 0.33 1.32 0.66 2 1 C0.55746343 4.36591866 -1.33264727 6.51047079 -4 9 C-4 7.68 -4 6.36 -4 5 C-3.34 5 -2.68 5 -2 5 C-2 4.34 -2 3.68 -2 3 C-1.34 3 -0.68 3 0 3 C0 2.01 0 1.02 0 0 Z " fill="#FEDAC8" transform="translate(250,119)"/>
<path d="M0 0 C1.39195915 4.17587745 -0.17676781 6.13474776 -2 10 C-2.33 10 -2.66 10 -3 10 C-3 7.69 -3 5.38 -3 3 C-2.34 3 -1.68 3 -1 3 C-0.67 2.01 -0.34 1.02 0 0 Z " fill="#E9591C" transform="translate(223,68)"/>
<path d="M0 0 C0.33 0.99 0.66 1.98 1 3 C-0.8125 6.1875 -0.8125 6.1875 -3 9 C-3.66 9 -4.32 9 -5 9 C-4.34 7.02 -3.68 5.04 -3 3 C-2.34 3 -1.68 3 -1 3 C-0.67 2.01 -0.34 1.02 0 0 Z " fill="#A3461D" transform="translate(17,23)"/>
<path d="M0 0 C1.32 0.33 2.64 0.66 4 1 C4 1.66 4 2.32 4 3 C4.99 3 5.98 3 7 3 C7.33 4.32 7.66 5.64 8 7 C4.2047869 5.50902342 2.38957269 3.24299151 0 0 Z " fill="#FFDFCD" transform="translate(50,165)"/>
<path d="M0 0 C1 2 1 2 0.375 4.0625 C-1 6 -1 6 -3.625 6.75 C-4.800625 6.87375 -4.800625 6.87375 -6 7 C-4.02 4.69 -2.04 2.38 0 0 Z " fill="#EB612E" transform="translate(240,135)"/>
<path d="M0 0 C2.31 0 4.62 0 7 0 C7.33 1.32 7.66 2.64 8 4 C5.36 3.34 2.72 2.68 0 2 C0 1.34 0 0.68 0 0 Z " fill="#EC5B22" transform="translate(101,53)"/>
<path d="M0 0 C-0.33 0.99 -0.66 1.98 -1 3 C-2.98 3.33 -4.96 3.66 -7 4 C-3.375 0 -3.375 0 0 0 Z " fill="#FFF0EA" transform="translate(130,206)"/>
<path d="M0 0 C1.32 0.33 2.64 0.66 4 1 C0.04 2.98 0.04 2.98 -4 5 C-3.67 3.68 -3.34 2.36 -3 1 C-2.01 1.33 -1.02 1.66 0 2 C0 1.34 0 0.68 0 0 Z " fill="#FEE9D7" transform="translate(116,203)"/>
<path d="M0 0 C-0.33 1.32 -0.66 2.64 -1 4 C-2.32 4 -3.64 4 -5 4 C-5 3.01 -5 2.02 -5 1 C-3 0 -3 0 0 0 Z " fill="#F64F0B" transform="translate(135,197)"/>
<path d="M0 0 C0.33 0.66 0.66 1.32 1 2 C-0.32 3.65 -1.64 5.3 -3 7 C-3.99 6.67 -4.98 6.34 -6 6 C-4.02 4.02 -2.04 2.04 0 0 Z " fill="#FEE9DC" transform="translate(135,163)"/>
<path d="M0 0 C0.6875 2.0625 0.6875 2.0625 1 4 C-1.91517292 2.92598892 -3.77810176 2.22189824 -6 0 C-3 -1 -3 -1 0 0 Z " fill="#ED7039" transform="translate(71,164)"/>
<path d="M0 0 C2 2 2 2 2 5 C1.34 5 0.68 5 0 5 C0 4.34 0 3.68 0 3 C-1.65 3.66 -3.3 4.32 -5 5 C-3.35 3.35 -1.7 1.7 0 0 Z " fill="#EC5823" transform="translate(216,158)"/>
<path d="M0 0 C0.33 0 0.66 0 1 0 C1 1.65 1 3.3 1 5 C0.01 5 -0.98 5 -2 5 C-2 5.66 -2 6.32 -2 7 C-2.99 7.33 -3.98 7.66 -5 8 C-5 7.34 -5 6.68 -5 6 C-4.34 6 -3.68 6 -3 6 C-2.690625 5.195625 -2.38125 4.39125 -2.0625 3.5625 C-1 1 -1 1 0 0 Z " fill="#FEDEC4" transform="translate(184,151)"/>
<path d="M0 0 C0.66 0 1.32 0 2 0 C1.38461538 5.53846154 1.38461538 5.53846154 -0.5625 7.875 C-1.036875 8.24625 -1.51125 8.6175 -2 9 C-2 7.35 -2 5.7 -2 4 C-1.34 4 -0.68 4 0 4 C0 2.68 0 1.36 0 0 Z " fill="#EC5E23" transform="translate(206,106)"/>
<path d="M0 0 C0.66 0 1.32 0 2 0 C1.01 3.3 0.02 6.6 -1 10 C-2.10191901 5.59232396 -1.58706842 4.1077065 0 0 Z " fill="#FFEAD7" transform="translate(213,68)"/>
<path d="M0 0 C-2.88395737 1.44197868 -5.82430479 1.58833581 -9 2 C-9 1.01 -9 0.02 -9 -1 C-5.38055101 -2.34053666 -3.42632833 -1.61798838 0 0 Z " fill="#F25923" transform="translate(84,67)"/>
</svg>
