<?xml version="1.0" standalone="no"?>
<!DOCTYPE svg PUBLIC "-//W3C//DTD SVG 20010904//EN"
 "http://www.w3.org/TR/2001/REC-SVG-20010904/DTD/svg10.dtd">
<svg version="1.0" xmlns="http://www.w3.org/2000/svg"
 width="290.000000pt" height="284.000000pt" viewBox="0 0 290.000000 284.000000"
 preserveAspectRatio="xMidYMid meet">

<g transform="translate(0.000000,284.000000) scale(0.100000,-0.100000)"
fill="#000000" stroke="none">
<path d="M599 2786 c-2 -2 -36 -6 -76 -9 -71 -5 -142 -24 -154 -40 -3 -5 -9
-7 -11 -5 -10 6 -107 -63 -148 -105 -22 -22 -38 -47 -36 -54 3 -7 0 -12 -7
-10 -7 1 -11 -6 -11 -15 1 -10 -2 -16 -6 -13 -12 7 -48 -68 -65 -133 -13 -47
-15 -204 -15 -988 0 -902 1 -934 20 -995 50 -160 165 -280 328 -342 57 -22 61
-22 972 -25 644 -2 935 0 982 8 142 24 300 136 361 257 66 129 62 65 62 1068
0 501 -3 939 -7 975 -20 170 -156 335 -334 402 l-59 23 -896 3 c-492 1 -897 1
-900 -2z m1536 -450 c36 -15 55 -42 55 -76 0 -21 -54 -167 -127 -340 -143
-344 -222 -494 -349 -660 -255 -335 -608 -568 -998 -660 -106 -25 -145 -28
-156 -10 -11 18 42 160 110 295 l25 50 95 12 c237 30 396 105 545 259 111 114
161 199 261 446 74 182 84 206 105 252 6 13 9 32 7 42 -3 18 -18 19 -291 22
-243 2 -289 5 -293 17 -4 8 15 66 41 127 75 179 93 216 112 227 12 7 159 10
421 11 325 0 409 -3 437 -14z m196 -44 c23 -25 42 -59 54 -97 9 -33 26 -85 36
-115 46 -140 109 -374 109 -404 0 -72 -147 -236 -409 -455 -66 -56 -211 -157
-316 -221 -80 -48 -315 -170 -390 -202 -22 -9 -62 -26 -88 -38 -99 -41 -219
-80 -215 -68 2 6 17 18 34 27 119 64 261 162 374 260 286 246 452 508 681
1078 72 177 80 222 52 262 -16 24 -16 24 13 17 16 -4 45 -24 65 -44z m-1239
-19 c22 -20 24 -80 3 -110 -16 -23 -69 -44 -97 -40 -32 5 -58 39 -58 74 0 72
101 123 152 76z m-254 -115 c32 -32 -3 -108 -48 -108 -26 0 -60 26 -60 46 0
24 23 63 39 67 31 9 57 7 69 -5z m-170 -164 c4 -28 -31 -58 -57 -49 -21 6 -26
29 -15 60 10 25 68 16 72 -11z m-113 -134 c0 -20 -6 -26 -27 -28 -24 -3 -28 0
-28 21 0 30 9 39 35 35 14 -2 20 -10 20 -28z m-90 -107 c-53 -197 -20 -355
103 -485 40 -42 112 -85 202 -119 59 -23 231 -17 320 11 74 24 168 71 217 110
37 29 41 17 7 -23 -101 -118 -319 -217 -478 -217 -229 1 -412 167 -445 407
-14 98 -3 187 36 281 25 63 52 87 38 35z"/>
</g>
</svg>
